<svg width="20" height="20" viewBox="0 0 20 20" fill="none" xmlns="http://www.w3.org/2000/svg">
<path d="M20 14V2C20 0.9 19.1 0 18 0H6C4.9 0 4 0.9 4 2V14C4 15.1 4.9 16 6 16H18C19.1 16 20 15.1 20 14ZM8.59975 10.5337C8.79983 10.2669 9.20002 10.267 9.39993 10.5339L10.643 12.1933C10.8389 12.4549 11.2292 12.4612 11.4335 12.206L13.6095 9.48775C13.8097 9.23767 14.1902 9.23773 14.3903 9.48788L17.3501 13.1877C17.612 13.515 17.3789 14 16.9597 14H7C6.58798 14 6.35279 13.5296 6.6 13.2L8.59975 10.5337ZM1 4C0.447715 4 0 4.44772 0 5V18C0 19.1 0.9 20 2 20H15C15.5523 20 16 19.5523 16 19C16 18.4477 15.5523 18 15 18H2V5C2 4.44772 1.55228 4 1 4Z" fill="#353535"/>
</svg>
