<svg width="10" height="6" viewBox="0 0 10 6" fill="none" xmlns="http://www.w3.org/2000/svg">
<path d="M9.8043 5.79401C9.86633 5.72915 9.91555 5.6521 9.94913 5.56727C9.98271 5.48244 10 5.3915 10 5.29965C10 5.20781 9.98271 5.11687 9.94913 5.03204C9.91555 4.94721 9.86633 4.87016 9.8043 4.8053L5.37578 0.163358C5.32647 0.111574 5.26791 0.070491 5.20344 0.0424599C5.13898 0.0144287 5.06987 0 5.00007 0C4.93028 0 4.86117 0.0144287 4.7967 0.0424599C4.73223 0.070491 4.67367 0.111574 4.62437 0.163358L0.195845 4.8053C-0.0652838 5.07901 -0.0652838 5.5203 0.195845 5.79401C0.456973 6.06773 0.877975 6.06773 1.1391 5.79401L5.00274 1.74977L8.86637 5.7996C9.12216 6.06772 9.5485 6.06773 9.8043 5.79401Z" fill="#353535"/>
</svg>
