<svg width="10" height="6" viewBox="0 0 10 6" fill="none" xmlns="http://www.w3.org/2000/svg">
<path d="M0.195705 0.205987C0.133669 0.270848 0.0844506 0.347901 0.0508684 0.432731C0.0172862 0.517561 6.4293e-08 0.608503 6.31977e-08 0.700346C6.21025e-08 0.792189 0.0172862 0.883131 0.0508684 0.967961C0.0844506 1.05279 0.133669 1.12984 0.195705 1.1947L4.62422 5.83664C4.67353 5.88843 4.73209 5.92951 4.79656 5.95754C4.86102 5.98557 4.93013 6 4.99993 6C5.06972 6 5.13883 5.98557 5.2033 5.95754C5.26777 5.92951 5.32633 5.88843 5.37563 5.83664L9.80416 1.1947C10.0653 0.920991 10.0653 0.4797 9.80416 0.205988C9.54303 -0.0677248 9.12202 -0.0677248 8.8609 0.205988L4.99726 4.25023L1.13363 0.200402C0.877835 -0.0677241 0.451504 -0.0677249 0.195705 0.205987Z" fill="#353535"/>
</svg>
