<svg width="38" height="38" viewBox="0 0 38 38" fill="none" xmlns="http://www.w3.org/2000/svg">
<g filter="url(#filter0_d_232_762)">
<rect x="33" y="31" width="28" height="28" rx="14" transform="rotate(180 33 31)" fill="#267B18"/>
</g>
<path d="M16.9391 10.0039C16.8665 10.0147 16.7972 10.0413 16.7361 10.0819C16.7361 10.0819 16.1038 10.4798 15.4239 10.9101C14.7441 11.34 13.9877 11.8139 13.8148 11.9098C13.8041 11.9145 13.7936 11.9195 13.7833 11.9248C13.1554 12.3122 13.0249 12.945 13.0024 13.2999C13.0009 13.3164 13.0024 13.3299 13.0024 13.3474C12.9969 13.4804 13.0024 13.5658 13.0024 13.5658V20.0954C13.0024 21.0441 14.1087 21.5005 15.1585 21.5005C15.5084 21.5005 15.8583 21.444 16.1582 21.344C16.3582 21.244 16.5017 21.0441 16.5017 20.8442V15.5957C16.5017 14.4461 16.7516 13.9062 17.5014 13.4564C17.7014 13.3564 19.7979 11.9093 19.7979 11.9093C19.8979 11.8094 20.0009 11.6064 20.0009 11.4565V11.4095C20.0009 11.2096 19.9009 11.0566 19.7509 10.9566C19.601 10.8567 19.401 10.8567 19.2511 10.9566C19.2011 11.0066 16.1517 13.0595 15.5019 13.4094C14.852 13.8093 14.2457 13.9057 14.0957 13.7058C14.0492 13.6593 14.0087 13.5169 14.0022 13.3779V13.3464C14.0027 13.2105 14.0377 12.9545 14.3147 12.7841C14.5956 12.6276 15.2929 12.1823 15.9708 11.7534C16.2572 11.5719 16.2927 11.5525 16.5172 11.4095C16.5467 11.5316 16.6212 11.6381 16.7257 11.7078C16.8302 11.7775 16.9572 11.8053 17.0813 11.7856C17.2054 11.766 17.3175 11.7003 17.3954 11.6017C17.4732 11.5031 17.5111 11.3788 17.5014 11.2535V10.5038C17.502 10.4325 17.4873 10.362 17.4584 10.2969C17.4295 10.2318 17.3869 10.1736 17.3337 10.1263C17.2804 10.0789 17.2177 10.0435 17.1496 10.0224C17.0815 10.0013 17.0098 9.99501 16.9391 10.0039V10.0039ZM20.9382 11.7534C20.8587 11.7666 20.7836 11.7989 20.7192 11.8474C20.7192 11.8474 18.2028 13.5404 17.7669 13.8308C17.7616 13.836 17.7564 13.8413 17.7514 13.8468C17.3895 14.1182 17.175 14.4411 17.0795 14.7365C17.026 14.9031 16.9997 15.0773 17.0016 15.2523V15.4088C17.0008 15.4243 17.0008 15.4398 17.0016 15.4553V21.5005C17.0016 22.4502 18.0953 23 19.0951 23C19.545 23 19.9509 22.903 20.2508 22.7031C20.8507 22.3532 23.7501 20.0949 23.7501 20.0949C23.9 19.9949 24 19.8539 24 19.704V13.206C24 12.956 23.903 12.8061 23.7031 12.7061C23.5531 12.6061 23.3067 12.6531 23.1567 12.7531C22.3569 13.3529 20.2038 15.0464 19.704 15.3463C19.0041 15.7462 18.3448 15.8462 18.0948 15.5962C17.9948 15.4963 18.0013 15.4023 18.0013 15.2523C18.0043 15.1664 18.0138 15.0924 18.0328 15.0334C18.0608 14.9464 18.1178 14.8395 18.3293 14.6745C18.3393 14.6665 18.3343 14.667 18.3448 14.659C18.7062 14.4176 19.8114 13.6643 20.5323 13.1745C20.5731 13.284 20.6511 13.3758 20.7526 13.4338C20.8541 13.4918 20.9727 13.5125 21.0878 13.4921C21.203 13.4717 21.3073 13.4116 21.3827 13.3222C21.4581 13.2329 21.4998 13.1199 21.5006 13.003V12.2532C21.5011 12.182 21.4864 12.1115 21.4575 12.0463C21.4286 11.9812 21.386 11.9231 21.3328 11.8757C21.2795 11.8284 21.2168 11.793 21.1487 11.7719C21.0807 11.7508 21.0089 11.7445 20.9382 11.7534ZM23.0002 15.4088V16.4085L20.5008 18.3449V17.3452L23.0002 15.4088Z" fill="white"/>
<defs>
<filter id="filter0_d_232_762" x="0" y="0" width="38" height="38" filterUnits="userSpaceOnUse" color-interpolation-filters="sRGB">
<feFlood flood-opacity="0" result="BackgroundImageFix"/>
<feColorMatrix in="SourceAlpha" type="matrix" values="0 0 0 0 0 0 0 0 0 0 0 0 0 0 0 0 0 0 127 0" result="hardAlpha"/>
<feOffset dy="2"/>
<feGaussianBlur stdDeviation="2.5"/>
<feComposite in2="hardAlpha" operator="out"/>
<feColorMatrix type="matrix" values="0 0 0 0 0 0 0 0 0 0 0 0 0 0 0 0 0 0 0.2 0"/>
<feBlend mode="normal" in2="BackgroundImageFix" result="effect1_dropShadow_232_762"/>
<feBlend mode="normal" in="SourceGraphic" in2="effect1_dropShadow_232_762" result="shape"/>
</filter>
</defs>
</svg>
