<svg width="11" height="13" viewBox="0 0 11 13" fill="none" xmlns="http://www.w3.org/2000/svg">
<path d="M3.93907 0.00392243C3.86652 0.0147106 3.79723 0.0413324 3.73611 0.0818989C3.73611 0.0818989 3.10375 0.479779 2.42391 0.910149C1.74406 1.34002 0.987725 1.81388 0.814763 1.90985C0.804094 1.91448 0.79359 1.91948 0.78327 1.92484C0.15541 2.31223 0.0249389 2.94503 0.0024439 3.29993C0.000944235 3.31642 0.0024439 3.32992 0.0024439 3.34741C-0.00305488 3.48037 0.0024439 3.56585 0.0024439 3.56585V10.0954C0.0024439 11.0441 1.1087 11.5005 2.15846 11.5005C2.50839 11.5005 2.85831 11.444 3.15824 11.344C3.3582 11.244 3.50167 11.0441 3.50167 10.8442V5.59573C3.50167 4.44608 3.75161 3.90624 4.50144 3.45638C4.7014 3.35641 6.79793 1.90935 6.79793 1.90935C6.89791 1.80938 7.00089 1.60644 7.00089 1.45648V1.4095C7.00089 1.20956 6.90091 1.0566 6.75094 0.956635C6.60098 0.856665 6.40102 0.856665 6.25106 0.956635C6.20107 1.00662 3.15174 3.0595 2.50189 3.40939C1.85203 3.80927 1.24567 3.90575 1.0957 3.70581C1.04921 3.65932 1.00872 3.51686 1.00222 3.3779V3.34641C1.00272 3.21045 1.03771 2.95453 1.31465 2.78408C1.59559 2.62763 2.29294 2.18227 2.97078 1.75339C3.25722 1.57195 3.29271 1.55246 3.51716 1.4095C3.54671 1.53161 3.62116 1.63812 3.72569 1.70782C3.83022 1.77752 3.95717 1.80531 4.08127 1.78564C4.20536 1.76598 4.3175 1.70031 4.39536 1.60171C4.47323 1.50311 4.5111 1.37881 4.50144 1.25355V0.503772C4.502 0.432525 4.48732 0.361983 4.45839 0.296874C4.42945 0.231764 4.38693 0.173592 4.33368 0.126257C4.28042 0.0789225 4.21766 0.0435189 4.1496 0.02242C4.08155 0.00132098 4.00976 -0.0049858 3.93907 0.00392243ZM7.93818 1.75339C7.85869 1.76661 7.78357 1.79885 7.71923 1.84737C7.71923 1.84737 5.20279 3.54036 4.76689 3.83077C4.7616 3.83598 4.75643 3.84132 4.75139 3.84676C4.38947 4.11818 4.17502 4.44108 4.07954 4.73649C4.02604 4.90315 3.99971 5.07732 4.00155 5.25234V5.40879C4.00083 5.42428 4.00083 5.43979 4.00155 5.45528V11.5005C4.00155 12.4502 5.09531 13 6.09509 13C6.54499 13 6.9509 12.903 7.25083 12.7031C7.8507 12.3532 10.7501 10.0949 10.7501 10.0949C10.9 9.99491 11 9.85395 11 9.70399V3.20596C11 2.95603 10.903 2.80608 10.7031 2.70611C10.5531 2.60614 10.3067 2.65312 10.1567 2.75309C9.35686 3.35291 7.20384 5.0464 6.70395 5.34631C6.00411 5.74619 5.34476 5.84616 5.09481 5.59623C4.99483 5.49626 5.00133 5.40229 5.00133 5.25234C5.00433 5.16636 5.01383 5.09239 5.03283 5.0334C5.06082 4.94643 5.11781 4.83946 5.32926 4.67451C5.33926 4.66651 5.33426 4.66701 5.34476 4.65902C5.70618 4.41759 6.81143 3.66432 7.53227 3.17447C7.57311 3.28402 7.65106 3.37579 7.75257 3.43382C7.85407 3.49184 7.97271 3.51246 8.08784 3.49207C8.20297 3.47169 8.30732 3.41159 8.38272 3.32224C8.45813 3.23289 8.49982 3.11993 8.50056 3.00302V2.25324C8.50111 2.182 8.48643 2.11146 8.4575 2.04635C8.42857 1.98124 8.38605 1.92306 8.33279 1.87573C8.27953 1.82839 8.21677 1.79299 8.14872 1.77189C8.08066 1.75079 8.00887 1.74449 7.93818 1.75339ZM10.0002 5.40879V6.40849L7.50078 8.3449V7.34521L10.0002 5.40879Z" fill="white"/>
</svg>
