<svg width="61" height="61" viewBox="0 0 61 61" fill="none" xmlns="http://www.w3.org/2000/svg">
<g filter="url(#filter0_d_232_913)">
<circle cx="30.5" cy="27.5" r="23.5" fill="white"/>
<path fill-rule="evenodd" clip-rule="evenodd" d="M30.5 4C17.5216 4 7 14.5216 7 27.5C7 40.4784 17.5216 51 30.5 51C43.4784 51 54 40.4784 54 27.5C54 14.5216 43.4784 4 30.5 4ZM32.6364 36.0455C32.6364 36.6121 32.4113 37.1554 32.0106 37.5561C31.61 37.9567 31.0666 38.1818 30.5 38.1818C29.9334 38.1818 29.39 37.9567 28.9894 37.5561C28.5887 37.1554 28.3636 36.6121 28.3636 36.0455V29.6364H21.9545C21.3879 29.6364 20.8446 29.4113 20.4439 29.0106C20.0433 28.61 19.8182 28.0666 19.8182 27.5C19.8182 26.9334 20.0433 26.39 20.4439 25.9894C20.8446 25.5887 21.3879 25.3636 21.9545 25.3636H28.3636V18.9545C28.3636 18.3879 28.5887 17.8446 28.9894 17.4439C29.39 17.0433 29.9334 16.8182 30.5 16.8182C31.0666 16.8182 31.61 17.0433 32.0106 17.4439C32.4113 17.8446 32.6364 18.3879 32.6364 18.9545V25.3636H39.0455C39.6121 25.3636 40.1554 25.5887 40.5561 25.9894C40.9567 26.39 41.1818 26.9334 41.1818 27.5C41.1818 28.0666 40.9567 28.61 40.5561 29.0106C40.1554 29.4113 39.6121 29.6364 39.0455 29.6364H32.6364V36.0455Z" fill="#267B18"/>
</g>
<defs>
<filter id="filter0_d_232_913" x="0" y="0" width="61" height="61" filterUnits="userSpaceOnUse" color-interpolation-filters="sRGB">
<feFlood flood-opacity="0" result="BackgroundImageFix"/>
<feColorMatrix in="SourceAlpha" type="matrix" values="0 0 0 0 0 0 0 0 0 0 0 0 0 0 0 0 0 0 127 0" result="hardAlpha"/>
<feOffset dy="3"/>
<feGaussianBlur stdDeviation="3.5"/>
<feComposite in2="hardAlpha" operator="out"/>
<feColorMatrix type="matrix" values="0 0 0 0 0 0 0 0 0 0 0 0 0 0 0 0 0 0 0.25 0"/>
<feBlend mode="normal" in2="BackgroundImageFix" result="effect1_dropShadow_232_913"/>
<feBlend mode="normal" in="SourceGraphic" in2="effect1_dropShadow_232_913" result="shape"/>
</filter>
</defs>
</svg>
