<svg width="13" height="13" viewBox="0 0 13 13" fill="none" xmlns="http://www.w3.org/2000/svg">
<path d="M12.06 2.58425C12.06 2.12732 11.8785 1.68911 11.5554 1.36601C11.2323 1.04291 10.7941 0.861392 10.3371 0.861392H9.90643V0.44279C9.90643 0.211011 9.72822 0.0120746 9.49644 0.000499086C9.43821 -0.00230681 9.38001 0.00674019 9.32537 0.027092C9.27073 0.0474437 9.2208 0.0786766 9.17859 0.118898C9.13638 0.159119 9.10277 0.207491 9.07981 0.261083C9.05685 0.314676 9.04501 0.372372 9.045 0.430676V0.861392H3.015V0.44279C3.015 0.211011 2.83679 0.0120746 2.60501 0.000499086C2.54678 -0.00230681 2.48858 0.00674019 2.43394 0.027092C2.3793 0.0474437 2.32937 0.0786766 2.28716 0.118898C2.24495 0.159119 2.21134 0.207491 2.18838 0.261083C2.16542 0.314676 2.15358 0.372372 2.15357 0.430676V0.861392H1.72286C1.26593 0.861392 0.827712 1.04291 0.504613 1.36601C0.181515 1.68911 0 2.12732 0 2.58425V2.90729C0 2.93585 0.0113447 2.96324 0.0315383 2.98343C0.051732 3.00363 0.0791204 3.01497 0.107679 3.01497H11.9523C11.9809 3.01497 12.0083 3.00363 12.0285 2.98343C12.0487 2.96324 12.06 2.93585 12.06 2.90729V2.58425ZM0 10.3371C0 10.7941 0.181515 11.2323 0.504613 11.5554C0.827712 11.8785 1.26593 12.06 1.72286 12.06H10.3371C10.7941 12.06 11.2323 11.8785 11.5554 11.5554C11.8785 11.2323 12.06 10.7941 12.06 10.3371V3.95716C12.06 3.93574 12.0515 3.9152 12.0363 3.90006C12.0212 3.88491 12.0007 3.8764 11.9792 3.8764H0.0807589C0.0593403 3.8764 0.038799 3.88491 0.0236538 3.90006C0.00850855 3.9152 0 3.93574 0 3.95716V10.3371ZM9.26036 4.73783C9.38814 4.73783 9.51305 4.77572 9.6193 4.84672C9.72554 4.91771 9.80835 5.01861 9.85725 5.13667C9.90615 5.25472 9.91894 5.38462 9.89402 5.50995C9.86909 5.63528 9.80755 5.75039 9.7172 5.84075C9.62684 5.93111 9.51173 5.99264 9.3864 6.01757C9.26107 6.0425 9.13117 6.0297 9.01312 5.9808C8.89506 5.9319 8.79416 5.84909 8.72317 5.74285C8.65218 5.6366 8.61429 5.51169 8.61429 5.38391C8.61429 5.21256 8.68235 5.04823 8.80352 4.92706C8.92468 4.8059 9.08901 4.73783 9.26036 4.73783ZM9.26036 6.89141C9.38814 6.89141 9.51305 6.9293 9.6193 7.0003C9.72554 7.07129 9.80835 7.17219 9.85725 7.29024C9.90615 7.4083 9.91894 7.5382 9.89402 7.66353C9.86909 7.78885 9.80755 7.90397 9.7172 7.99433C9.62684 8.08468 9.51173 8.14622 9.3864 8.17115C9.26107 8.19607 9.13117 8.18328 9.01312 8.13438C8.89506 8.08548 8.79416 8.00267 8.72317 7.89642C8.65218 7.79018 8.61429 7.66527 8.61429 7.53749C8.61429 7.36614 8.68235 7.20181 8.80352 7.08064C8.92468 6.95948 9.08901 6.89141 9.26036 6.89141ZM7.10679 4.73783C7.23457 4.73783 7.35948 4.77572 7.46572 4.84672C7.57197 4.91771 7.65478 5.01861 7.70368 5.13667C7.75258 5.25472 7.76537 5.38462 7.74044 5.50995C7.71551 5.63528 7.65398 5.75039 7.56363 5.84075C7.47327 5.93111 7.35815 5.99264 7.23283 6.01757C7.1075 6.0425 6.9776 6.0297 6.85955 5.9808C6.74149 5.9319 6.64059 5.84909 6.5696 5.74285C6.49861 5.6366 6.46071 5.51169 6.46071 5.38391C6.46071 5.21256 6.52878 5.04823 6.64994 4.92706C6.77111 4.8059 6.93544 4.73783 7.10679 4.73783ZM7.10679 6.89141C7.23457 6.89141 7.35948 6.9293 7.46572 7.0003C7.57197 7.07129 7.65478 7.17219 7.70368 7.29024C7.75258 7.4083 7.76537 7.5382 7.74044 7.66353C7.71551 7.78885 7.65398 7.90397 7.56363 7.99433C7.47327 8.08468 7.35815 8.14622 7.23283 8.17115C7.1075 8.19607 6.9776 8.18328 6.85955 8.13438C6.74149 8.08548 6.64059 8.00267 6.5696 7.89642C6.49861 7.79018 6.46071 7.66527 6.46071 7.53749C6.46071 7.36614 6.52878 7.20181 6.64994 7.08064C6.77111 6.95948 6.93544 6.89141 7.10679 6.89141ZM7.10679 9.04499C7.23457 9.04499 7.35948 9.08288 7.46572 9.15387C7.57197 9.22486 7.65478 9.32577 7.70368 9.44382C7.75258 9.56188 7.76537 9.69178 7.74044 9.81711C7.71551 9.94243 7.65398 10.0576 7.56363 10.1479C7.47327 10.2383 7.35815 10.2998 7.23283 10.3247C7.1075 10.3497 6.9776 10.3369 6.85955 10.288C6.74149 10.2391 6.64059 10.1562 6.5696 10.05C6.49861 9.94376 6.46071 9.81885 6.46071 9.69106C6.46071 9.51971 6.52878 9.35538 6.64994 9.23422C6.77111 9.11306 6.93544 9.04499 7.10679 9.04499ZM4.95321 6.89141C5.081 6.89141 5.20591 6.9293 5.31215 7.0003C5.4184 7.07129 5.50121 7.17219 5.55011 7.29024C5.59901 7.4083 5.6118 7.5382 5.58687 7.66353C5.56194 7.78885 5.50041 7.90397 5.41006 7.99433C5.3197 8.08468 5.20458 8.14622 5.07926 8.17115C4.95393 8.19607 4.82403 8.18328 4.70597 8.13438C4.58792 8.08548 4.48702 8.00267 4.41603 7.89642C4.34503 7.79018 4.30714 7.66527 4.30714 7.53749C4.30714 7.36614 4.37521 7.20181 4.49637 7.08064C4.61753 6.95948 4.78187 6.89141 4.95321 6.89141ZM4.95321 9.04499C5.081 9.04499 5.20591 9.08288 5.31215 9.15387C5.4184 9.22486 5.50121 9.32577 5.55011 9.44382C5.59901 9.56188 5.6118 9.69178 5.58687 9.81711C5.56194 9.94243 5.50041 10.0576 5.41006 10.1479C5.3197 10.2383 5.20458 10.2998 5.07926 10.3247C4.95393 10.3497 4.82403 10.3369 4.70597 10.288C4.58792 10.2391 4.48702 10.1562 4.41603 10.05C4.34503 9.94376 4.30714 9.81885 4.30714 9.69106C4.30714 9.51971 4.37521 9.35538 4.49637 9.23422C4.61753 9.11306 4.78187 9.04499 4.95321 9.04499ZM2.79964 6.89141C2.92742 6.89141 3.05234 6.9293 3.15858 7.0003C3.26483 7.07129 3.34764 7.17219 3.39654 7.29024C3.44543 7.4083 3.45823 7.5382 3.4333 7.66353C3.40837 7.78885 3.34684 7.90397 3.25648 7.99433C3.16613 8.08468 3.05101 8.14622 2.92569 8.17115C2.80036 8.19607 2.67046 8.18328 2.5524 8.13438C2.43435 8.08548 2.33345 8.00267 2.26245 7.89642C2.19146 7.79018 2.15357 7.66527 2.15357 7.53749C2.15357 7.36614 2.22164 7.20181 2.3428 7.08064C2.46396 6.95948 2.62829 6.89141 2.79964 6.89141ZM2.79964 9.04499C2.92742 9.04499 3.05234 9.08288 3.15858 9.15387C3.26483 9.22486 3.34764 9.32577 3.39654 9.44382C3.44543 9.56188 3.45823 9.69178 3.4333 9.81711C3.40837 9.94243 3.34684 10.0576 3.25648 10.1479C3.16613 10.2383 3.05101 10.2998 2.92569 10.3247C2.80036 10.3497 2.67046 10.3369 2.5524 10.288C2.43435 10.2391 2.33345 10.1562 2.26245 10.05C2.19146 9.94376 2.15357 9.81885 2.15357 9.69106C2.15357 9.51971 2.22164 9.35538 2.3428 9.23422C2.46396 9.11306 2.62829 9.04499 2.79964 9.04499Z" fill="#353535"/>
</svg>
