<svg width="17" height="19" viewBox="0 0 17 19" fill="none" xmlns="http://www.w3.org/2000/svg">
<path d="M16.4091 12.4688V1.78125C16.4091 0.79748 15.6216 0 14.651 0H3.51623C1.57425 0 0 1.59496 0 3.5625V15.4375C0 17.405 1.57425 19 3.51623 19H15.237C15.8842 19 16.4091 18.4682 16.4091 17.8459C16.4091 17.411 16.1671 17.0473 15.8231 16.8402V13.821C16.182 13.4633 16.4091 12.9957 16.4091 12.4688ZM5.24139 4.75H12.2739C12.6291 4.75 12.8929 5.01719 12.8929 5.34375C12.8929 5.67031 12.6291 5.9375 12.3068 5.9375H5.24139C4.95203 5.9375 4.68831 5.67031 4.68831 5.34375C4.68831 5.01719 4.95203 4.75 5.24139 4.75ZM5.24139 7.125H12.2739C12.6291 7.125 12.8929 7.39219 12.8929 7.71875C12.8929 8.04531 12.6291 8.3125 12.3068 8.3125H5.24139C4.95203 8.3125 4.68831 8.04531 4.68831 7.71875C4.68831 7.39219 4.95203 7.125 5.24139 7.125ZM14.0649 16.625H3.51623C2.86903 16.625 2.34416 16.0932 2.34416 15.4375C2.34416 14.7818 2.86903 14.25 3.51623 14.25H14.0649V16.625Z" fill="white"/>
</svg>
