<svg width="12" height="11" viewBox="0 0 12 11" fill="none" xmlns="http://www.w3.org/2000/svg">
<path d="M2.56062 8.38732H10.1538C10.3987 8.38732 10.6334 8.2943 10.8066 8.12873C10.9797 7.96316 11.0769 7.73859 11.0769 7.50444V1.76575C11.0769 1.5316 10.9797 1.30703 10.8066 1.14146C10.6334 0.975892 10.3987 0.882875 10.1538 0.882875H1.84615C1.60134 0.882875 1.36655 0.975892 1.19344 1.14146C1.02033 1.30703 0.923077 1.5316 0.923077 1.76575V9.641L2.56062 8.38732ZM2.88462 9.27019L0.749538 10.9035C0.681674 10.9553 0.599895 10.9878 0.513602 10.9972C0.427309 11.0066 0.340002 10.9924 0.261716 10.9565C0.18343 10.9205 0.117341 10.8642 0.0710448 10.7939C0.0247486 10.7236 0.00012363 10.6423 0 10.5592V1.76575C0 1.29744 0.194505 0.848319 0.540726 0.517176C0.886947 0.186034 1.35652 0 1.84615 0H10.1538C10.6435 0 11.1131 0.186034 11.4593 0.517176C11.8055 0.848319 12 1.29744 12 1.76575V7.50444C12 7.97275 11.8055 8.42187 11.4593 8.75302C11.1131 9.08416 10.6435 9.27019 10.1538 9.27019H2.88462Z" fill="#353535"/>
</svg>
