<svg width="17" height="22" viewBox="0 0 17 22" fill="none" xmlns="http://www.w3.org/2000/svg">
<path d="M10.3125 7.5625C10.3125 8.10951 10.0952 8.63411 9.70841 9.02091C9.32161 9.4077 8.79701 9.625 8.25 9.625C7.70299 9.625 7.17839 9.4077 6.79159 9.02091C6.4048 8.63411 6.1875 8.10951 6.1875 7.5625C6.1875 7.01549 6.4048 6.49089 6.79159 6.10409C7.17839 5.7173 7.70299 5.5 8.25 5.5C8.79701 5.5 9.32161 5.7173 9.70841 6.10409C10.0952 6.49089 10.3125 7.01549 10.3125 7.5625ZM4.125 12.0312V12.375C4.125 13.1043 4.41473 13.8038 4.93046 14.3195C5.44618 14.8353 6.14565 15.125 6.875 15.125H9.625C10.3543 15.125 11.0538 14.8353 11.5695 14.3195C12.0853 13.8038 12.375 13.1043 12.375 12.375V12.0312C12.375 11.7577 12.2663 11.4954 12.073 11.302C11.8796 11.1087 11.6173 11 11.3438 11H5.15625C4.88275 11 4.62044 11.1087 4.42705 11.302C4.23365 11.4954 4.125 11.7577 4.125 12.0312ZM0 2.75V19.25C0 19.9793 0.289731 20.6788 0.805456 21.1945C1.32118 21.7103 2.02065 22 2.75 22H15.8125C15.9948 22 16.1697 21.9276 16.2986 21.7986C16.4276 21.6697 16.5 21.4948 16.5 21.3125C16.5 21.1302 16.4276 20.9553 16.2986 20.8264C16.1697 20.6974 15.9948 20.625 15.8125 20.625H2.75C2.38533 20.625 2.03559 20.4801 1.77773 20.2223C1.51987 19.9644 1.375 19.6147 1.375 19.25H15.125C15.4897 19.25 15.8394 19.1051 16.0973 18.8473C16.3551 18.5894 16.5 18.2397 16.5 17.875V2.75C16.5 2.02065 16.2103 1.32118 15.6945 0.805456C15.1788 0.289731 14.4793 0 13.75 0H2.75C2.02065 0 1.32118 0.289731 0.805456 0.805456C0.289731 1.32118 0 2.02065 0 2.75ZM13.75 1.375C14.1147 1.375 14.4644 1.51987 14.7223 1.77773C14.9801 2.03559 15.125 2.38533 15.125 2.75V17.875H1.375V2.75C1.375 2.38533 1.51987 2.03559 1.77773 1.77773C2.03559 1.51987 2.38533 1.375 2.75 1.375H13.75Z" fill="white"/>
</svg>
