<svg width="17" height="20" viewBox="0 0 17 20" fill="none" xmlns="http://www.w3.org/2000/svg">
<path d="M5.75967 0.0057358C5.65359 0.0215114 5.55227 0.0604406 5.46291 0.119761C5.46291 0.119761 4.53828 0.701584 3.54421 1.33092C2.55014 1.95952 1.44424 2.65245 1.19134 2.79278C1.17574 2.79956 1.16038 2.80687 1.14529 2.81471C0.227239 3.38119 0.0364654 4.30655 0.00357345 4.82551C0.00138065 4.84963 0.00357345 4.86937 0.00357345 4.89495C-0.00446681 5.08938 0.00357345 5.21437 0.00357345 5.21437V14.7625C0.00357345 16.1499 1.62113 16.8172 3.15609 16.8172C3.66774 16.8172 4.1794 16.7346 4.61795 16.5884C4.91033 16.4422 5.12011 16.1499 5.12011 15.8575V8.18269C5.12011 6.50154 5.48557 5.71213 6.58197 5.05429C6.87435 4.90811 9.93988 2.79205 9.93988 2.79205C10.0861 2.64587 10.2366 2.34911 10.2366 2.12983V2.06112C10.2366 1.76875 10.0905 1.54508 9.87117 1.39889C9.65189 1.25271 9.35952 1.25271 9.14024 1.39889C9.06715 1.47199 4.60845 4.47393 3.65824 4.98558C2.70803 5.57033 1.8214 5.7114 1.60212 5.41903C1.53415 5.35105 1.47494 5.14273 1.46544 4.93954V4.89349C1.46617 4.69467 1.51734 4.32043 1.92227 4.07119C2.33306 3.8424 3.35271 3.19114 4.34386 2.564C4.76268 2.29867 4.81458 2.27017 5.14277 2.06112C5.18597 2.23968 5.29483 2.39543 5.44767 2.49735C5.60052 2.59928 5.78614 2.63991 5.96759 2.61116C6.14904 2.58241 6.31301 2.48638 6.42686 2.3422C6.54071 2.19801 6.59609 2.01624 6.58197 1.83307V0.736669C6.58279 0.632485 6.56133 0.529331 6.51902 0.434121C6.47671 0.33891 6.41454 0.253845 6.33667 0.184627C6.2588 0.115409 6.16703 0.0636381 6.06751 0.0327849C5.968 0.00193168 5.86304 -0.00729077 5.75967 0.0057358ZM11.6071 2.564C11.4909 2.58333 11.3811 2.63048 11.287 2.70142C11.287 2.70142 7.60747 5.17709 6.9701 5.60176C6.96237 5.60939 6.95482 5.61719 6.94744 5.62515C6.41824 6.02205 6.10467 6.49423 5.96507 6.92621C5.88684 7.16991 5.84834 7.4246 5.85104 7.68053V7.90932C5.84999 7.93196 5.84999 7.95465 5.85104 7.97729V16.8172C5.85104 18.206 7.45032 19.01 8.91219 19.01C9.57003 19.01 10.1635 18.8682 10.6021 18.5758C11.4792 18.0642 15.7186 14.7618 15.7186 14.7618C15.9379 14.6156 16.0841 14.4095 16.0841 14.1902V4.68809C16.0841 4.32263 15.9423 4.10335 15.6499 3.95716C15.4307 3.81097 15.0703 3.87968 14.851 4.02587C13.6815 4.90299 10.5334 7.37939 9.80246 7.81795C8.77916 8.4027 7.81506 8.54888 7.44959 8.18342C7.3034 8.03723 7.31291 7.89981 7.31291 7.68053C7.31729 7.55481 7.33118 7.44664 7.35895 7.36039C7.39989 7.2332 7.48321 7.07678 7.7924 6.83558C7.80702 6.82388 7.79971 6.82461 7.81506 6.81292C8.34352 6.45988 9.95961 5.35836 11.0136 4.64205C11.0733 4.80224 11.1873 4.93644 11.3357 5.0213C11.4842 5.10615 11.6576 5.13629 11.826 5.10648C11.9943 5.07667 12.1469 4.9888 12.2571 4.85813C12.3674 4.72747 12.4284 4.5623 12.4294 4.39134V3.29494C12.4303 3.19075 12.4088 3.0876 12.3665 2.99239C12.3242 2.89718 12.262 2.81211 12.1841 2.74289C12.1063 2.67368 12.0145 2.6219 11.915 2.59105C11.8155 2.5602 11.7105 2.55098 11.6071 2.564ZM14.6222 7.90932V9.37118L10.9676 12.2028V10.741L14.6222 7.90932Z" fill="white"/>
</svg>
