<svg width="34" height="34" viewBox="0 0 34 34" fill="none" xmlns="http://www.w3.org/2000/svg">
<path d="M17 28.6667V15.3333M12 27V15.3333C12 13.6667 13 10.3333 17 10.3333C21 10.3333 22 13.6667 22 15.3333V25.3333M7 20.3333V15.3333C7 12 9 5.33333 17 5.33333C25 5.33333 27 12 27 15.3333M27 22V20.3333M8.66667 2H5.33333C4.44928 2 3.60143 2.35119 2.97631 2.97631C2.35119 3.60143 2 4.44928 2 5.33333V8.66667M2 25.3333V28.6667C2 29.5507 2.35119 30.3986 2.97631 31.0237C3.60143 31.6488 4.44928 32 5.33333 32H8.66667M25.3333 32H28.6667C29.5507 32 30.3986 31.6488 31.0237 31.0237C31.6488 30.3986 32 29.5507 32 28.6667V25.3333M32 8.66667V5.33333C32 4.44928 31.6488 3.60143 31.0237 2.97631C30.3986 2.35119 29.5507 2 28.6667 2H25.3333" stroke="#353535" stroke-width="3" stroke-linecap="round" stroke-linejoin="round"/>
</svg>
