<svg width="15" height="14" viewBox="0 0 15 14" fill="none" xmlns="http://www.w3.org/2000/svg">
<circle cx="5" cy="5" r="5" fill="#FFD600"/>
<path d="M7.93907 1.00392C7.86652 1.01471 7.79723 1.04133 7.73611 1.0819C7.73611 1.0819 7.10375 1.47978 6.42391 1.91015C5.74406 2.34002 4.98772 2.81388 4.81476 2.90985C4.80409 2.91448 4.79359 2.91948 4.78327 2.92484C4.15541 3.31223 4.02494 3.94503 4.00244 4.29993C4.00094 4.31642 4.00244 4.32992 4.00244 4.34741C3.99695 4.48037 4.00244 4.56585 4.00244 4.56585V11.0954C4.00244 12.0441 5.1087 12.5005 6.15847 12.5005C6.50839 12.5005 6.85831 12.444 7.15824 12.344C7.3582 12.244 7.50167 12.0441 7.50167 11.8442V6.59573C7.50167 5.44608 7.75161 4.90624 8.50144 4.45638C8.7014 4.35641 10.7979 2.90935 10.7979 2.90935C10.8979 2.80938 11.0009 2.60644 11.0009 2.45648V2.4095C11.0009 2.20956 10.9009 2.0566 10.7509 1.95663C10.601 1.85667 10.401 1.85667 10.2511 1.95663C10.2011 2.00662 7.15174 4.0595 6.50189 4.40939C5.85203 4.80927 5.24567 4.90574 5.0957 4.70581C5.04921 4.65932 5.00872 4.51686 5.00222 4.3779V4.34641C5.00272 4.21045 5.03771 3.95453 5.31465 3.78408C5.59559 3.62763 6.29294 3.18227 6.97078 2.75339C7.25722 2.57195 7.29271 2.55246 7.51716 2.4095C7.54671 2.53161 7.62116 2.63812 7.72569 2.70782C7.83022 2.77752 7.95717 2.80531 8.08127 2.78564C8.20536 2.76598 8.3175 2.70031 8.39536 2.60171C8.47323 2.50311 8.5111 2.37881 8.50144 2.25355V1.50377C8.502 1.43253 8.48732 1.36198 8.45839 1.29687C8.42945 1.23176 8.38693 1.17359 8.33368 1.12626C8.28042 1.07892 8.21766 1.04352 8.1496 1.02242C8.08155 1.00132 8.00976 0.995014 7.93907 1.00392V1.00392ZM11.9382 2.75339C11.8587 2.76661 11.7836 2.79885 11.7192 2.84737C11.7192 2.84737 9.20279 4.54036 8.76689 4.83077C8.7616 4.83598 8.75643 4.84132 8.75139 4.84676C8.38947 5.11818 8.17502 5.44108 8.07954 5.73649C8.02604 5.90315 7.99971 6.07732 8.00156 6.25234V6.40879C8.00083 6.42428 8.00083 6.43979 8.00156 6.45528V12.5005C8.00156 13.4502 9.09531 14 10.0951 14C10.545 14 10.9509 13.903 11.2508 13.7031C11.8507 13.3532 14.7501 11.0949 14.7501 11.0949C14.9 10.9949 15 10.8539 15 10.704V4.20596C15 3.95603 14.903 3.80608 14.7031 3.70611C14.5531 3.60614 14.3067 3.65312 14.1567 3.75309C13.3569 4.35291 11.2038 6.0464 10.704 6.34631C10.0041 6.74619 9.34476 6.84616 9.09481 6.59623C8.99483 6.49626 9.00133 6.40229 9.00133 6.25234C9.00433 6.16636 9.01383 6.09239 9.03283 6.0334C9.06082 5.94643 9.11781 5.83946 9.32926 5.67451C9.33926 5.66651 9.33426 5.66701 9.34476 5.65902C9.70618 5.41759 10.8114 4.66432 11.5323 4.17447C11.5731 4.28402 11.6511 4.37579 11.7526 4.43382C11.8541 4.49184 11.9727 4.51246 12.0878 4.49207C12.203 4.47169 12.3073 4.41159 12.3827 4.32224C12.4581 4.23289 12.4998 4.11993 12.5006 4.00302V3.25324C12.5011 3.182 12.4864 3.11146 12.4575 3.04635C12.4286 2.98124 12.386 2.92306 12.3328 2.87573C12.2795 2.82839 12.2168 2.79299 12.1487 2.77189C12.0807 2.75079 12.0089 2.74449 11.9382 2.75339ZM14.0002 6.40879V7.40849L11.5008 9.3449V8.34521L14.0002 6.40879Z" fill="#353535"/>
</svg>
