<svg width="16" height="18" viewBox="0 0 16 18" fill="none" xmlns="http://www.w3.org/2000/svg">
<path d="M15.0487 11.4187V1.63125C15.0487 0.730324 14.3264 0 13.4363 0H3.22471C1.44373 0 0 1.46065 0 3.2625V14.1375C0 15.9394 1.44373 17.4 3.22471 17.4H13.9737C14.5673 17.4 15.0487 16.913 15.0487 16.3431C15.0487 15.9448 14.8267 15.6117 14.5112 15.4221V12.6571C14.8404 12.3295 15.0487 11.9013 15.0487 11.4187ZM4.80683 4.35H11.2563C11.5821 4.35 11.8239 4.59469 11.8239 4.89375C11.8239 5.19281 11.5821 5.4375 11.2865 5.4375H4.80683C4.54147 5.4375 4.29961 5.19281 4.29961 4.89375C4.29961 4.59469 4.54147 4.35 4.80683 4.35ZM4.80683 6.525H11.2563C11.5821 6.525 11.8239 6.76969 11.8239 7.06875C11.8239 7.36781 11.5821 7.6125 11.2865 7.6125H4.80683C4.54147 7.6125 4.29961 7.36781 4.29961 7.06875C4.29961 6.76969 4.54147 6.525 4.80683 6.525ZM12.8988 15.225H3.22471C2.63116 15.225 2.14981 14.738 2.14981 14.1375C2.14981 13.537 2.63116 13.05 3.22471 13.05H12.8988V15.225Z" fill="white"/>
</svg>
