<svg width="16" height="20" viewBox="0 0 16 20" fill="none" xmlns="http://www.w3.org/2000/svg">
<path d="M15.41 5.41L10.58 0.58C10.21 0.21 9.7 0 9.17 0H2C0.9 0 0.0100002 0.9 0.0100002 2L0 18C0 19.1 0.89 20 1.99 20H14C15.1 20 16 19.1 16 18V6.83C16 6.3 15.79 5.79 15.41 5.41ZM11 11H9V14.61C9 15.89 8 17.02 6.72 17C6.37048 16.9949 6.02693 16.9087 5.71636 16.7483C5.40579 16.5879 5.13669 16.3576 4.93023 16.0755C4.72377 15.7934 4.58558 15.4673 4.52654 15.1228C4.46751 14.7782 4.48923 14.4247 4.59 14.09C4.8 13.37 5.39 12.78 6.12 12.58C6.82 12.39 7.48 12.53 8 12.87V10C8 9.45 8.45 9 9 9H11C11.55 9 12 9.45 12 10C12 10.55 11.55 11 11 11ZM10 7C9.45 7 9 6.55 9 6V1.5L14.5 7H10Z" fill="#353535"/>
</svg>
