<svg width="8" height="12" viewBox="0 0 8 12" fill="none" xmlns="http://www.w3.org/2000/svg">
<path d="M6.95275 0.234846C6.87492 0.160403 6.78246 0.101341 6.68066 0.061042C6.57887 0.0207433 6.46974 0 6.35952 0C6.24931 0 6.14018 0.0207433 6.03839 0.061042C5.93659 0.101341 5.84413 0.160403 5.76629 0.234846L0.195969 5.54907C0.133828 5.60823 0.0845282 5.67851 0.0508908 5.75587C0.0172534 5.83323 -6.10352e-05 5.91616 -6.10352e-05 5.99992C-6.10352e-05 6.08367 0.0172534 6.1666 0.0508908 6.24396C0.0845282 6.32132 0.133828 6.3916 0.195969 6.45076L5.76629 11.765C6.09475 12.0783 6.6243 12.0783 6.95275 11.765C7.28121 11.4516 7.28121 10.9464 6.95275 10.6331L2.09967 5.99672L6.95946 1.36036C7.28121 1.0534 7.28121 0.541804 6.95275 0.234846Z" fill="#CACACA"/>
</svg>
