<svg width="8" height="12" viewBox="0 0 8 12" fill="none" xmlns="http://www.w3.org/2000/svg">
<path d="M0.247198 11.7652C0.325031 11.8396 0.417494 11.8987 0.51929 11.939C0.621086 11.9793 0.730216 12 0.840428 12C0.95064 12 1.05977 11.9793 1.16157 11.939C1.26336 11.8987 1.35582 11.8396 1.43366 11.7652L7.00398 6.45093C7.06612 6.39177 7.11542 6.32149 7.14906 6.24413C7.1827 6.16677 7.20001 6.08384 7.20001 6.00008C7.20001 5.91633 7.1827 5.8334 7.14906 5.75604C7.11542 5.67868 7.06612 5.6084 7.00398 5.54924L1.43366 0.235014C1.1052 -0.078339 0.575652 -0.078339 0.247197 0.235015C-0.0812583 0.548368 -0.0812583 1.05357 0.247197 1.36693L5.10028 6.00328L0.240496 10.6396C-0.081256 10.9466 -0.0812574 11.4582 0.247198 11.7652Z" fill="#353535"/>
</svg>
