<svg width="6" height="10" viewBox="0 0 6 10" fill="none" xmlns="http://www.w3.org/2000/svg">
<path d="M0.205987 9.8043C0.270848 9.86633 0.347901 9.91555 0.432731 9.94913C0.517561 9.98271 0.608502 10 0.700346 10C0.79219 10 0.883131 9.98271 0.967961 9.94913C1.05279 9.91555 1.12984 9.86633 1.1947 9.8043L5.83664 5.37578C5.88843 5.32647 5.92951 5.26791 5.95754 5.20344C5.98557 5.13898 6 5.06987 6 5.00007C6 4.93028 5.98557 4.86117 5.95754 4.7967C5.92951 4.73223 5.88843 4.67367 5.83664 4.62437L1.1947 0.195845C0.920991 -0.0652833 0.479699 -0.0652833 0.205987 0.195845C-0.067726 0.456974 -0.067726 0.877976 0.205987 1.1391L4.25023 5.00274L0.200402 8.86637C-0.0677243 9.12217 -0.0677252 9.5485 0.205987 9.8043Z" fill="#353535"/>
</svg>
