<svg width="8" height="12" viewBox="0 0 8 12" fill="none" xmlns="http://www.w3.org/2000/svg">
<path d="M6.95281 0.234846C6.87498 0.160403 6.78252 0.101341 6.68072 0.061042C6.57893 0.0207433 6.4698 0 6.35958 0C6.24937 0 6.14024 0.0207433 6.03845 0.061042C5.93665 0.101341 5.84419 0.160403 5.76636 0.234846L0.19603 5.54907C0.133889 5.60823 0.0845892 5.67851 0.0509518 5.75587C0.0173144 5.83323 0 5.91616 0 5.99992C0 6.08367 0.0173144 6.1666 0.0509518 6.24396C0.0845892 6.32132 0.133889 6.3916 0.19603 6.45076L5.76636 11.765C6.09481 12.0783 6.62436 12.0783 6.95281 11.765C7.28127 11.4516 7.28127 10.9464 6.95281 10.6331L2.09973 5.99672L6.95952 1.36036C7.28127 1.0534 7.28127 0.541804 6.95281 0.234846Z" fill="#353535"/>
</svg>
