<svg width="17" height="9" viewBox="0 0 17 9" fill="none" xmlns="http://www.w3.org/2000/svg">
<path d="M0.313994 0.308982C0.214462 0.406273 0.135495 0.521852 0.0816143 0.649097C0.027734 0.776342 -3.53505e-07 0.912754 -3.47483e-07 1.05052C-3.41461e-07 1.18828 0.027734 1.3247 0.0816143 1.45194C0.135495 1.57919 0.214462 1.69476 0.313994 1.79206L7.41925 8.75496C7.49835 8.83264 7.59231 8.89426 7.69574 8.93631C7.79918 8.97836 7.91006 9 8.02204 9C8.13402 9 8.2449 8.97836 8.34834 8.93631C8.45177 8.89426 8.54573 8.83264 8.62483 8.75496L15.7301 1.79206C16.149 1.38149 16.149 0.719549 15.7301 0.308981C15.3111 -0.101587 14.6357 -0.101587 14.2167 0.308981L8.01776 6.37534L1.81884 0.300604C1.40843 -0.101586 0.724406 -0.101587 0.313994 0.308982Z" fill="#353535"/>
</svg>
