<svg width="8" height="12" viewBox="0 0 8 12" fill="none" xmlns="http://www.w3.org/2000/svg">
<path d="M0.247137 11.7652C0.32497 11.8396 0.417433 11.8987 0.519229 11.939C0.621025 11.9793 0.730155 12 0.840367 12C0.950579 12 1.05971 11.9793 1.1615 11.939C1.2633 11.8987 1.35576 11.8396 1.4336 11.7652L7.00392 6.45093C7.06606 6.39177 7.11536 6.32149 7.149 6.24413C7.18264 6.16677 7.19995 6.08384 7.19995 6.00008C7.19995 5.91633 7.18264 5.8334 7.149 5.75604C7.11536 5.67868 7.06606 5.6084 7.00392 5.54924L1.4336 0.235014C1.10514 -0.078339 0.575591 -0.078339 0.247136 0.235015C-0.0813194 0.548368 -0.0813193 1.05357 0.247136 1.36693L5.10022 6.00328L0.240435 10.6396C-0.081317 10.9466 -0.0813184 11.4582 0.247137 11.7652Z" fill="#CACACA"/>
</svg>
