<svg width="22" height="24" viewBox="0 0 22 24" fill="none" xmlns="http://www.w3.org/2000/svg">
<path d="M14.4978 18.7692V19.6154C14.4978 20.513 14.1469 21.3739 13.5223 22.0087C12.8977 22.6434 12.0506 23 11.1673 23C10.284 23 9.43685 22.6434 8.81226 22.0087C8.18767 21.3739 7.83678 20.513 7.83678 19.6154V18.7692M20.1014 17.0468C18.765 15.3846 17.8215 14.5385 17.8215 9.95601C17.8215 5.75962 15.7129 4.26457 13.9774 3.53846C13.7469 3.44221 13.5299 3.22115 13.4596 2.98053C13.1552 1.9276 12.3017 1 11.1673 1C10.0328 1 9.17887 1.92813 8.87756 2.98159C8.80731 3.22486 8.59031 3.44221 8.35977 3.53846C6.62218 4.26563 4.51564 5.75538 4.51564 9.95601C4.51303 14.5385 3.56956 15.3846 2.2332 17.0468C1.6795 17.7353 2.16451 18.7692 3.13296 18.7692H19.2068C20.1701 18.7692 20.652 17.7322 20.1014 17.0468Z" stroke="#353535" stroke-width="2" stroke-linecap="round" stroke-linejoin="round"/>
</svg>
