<svg width="12" height="15" viewBox="0 0 12 15" fill="none" xmlns="http://www.w3.org/2000/svg">
<path d="M7.09091 9.64286C7.09091 9.92702 6.97597 10.1995 6.77139 10.4005C6.5668 10.6014 6.28933 10.7143 6 10.7143C5.71067 10.7143 5.4332 10.6014 5.22861 10.4005C5.02403 10.1995 4.90909 9.92702 4.90909 9.64286C4.90909 9.3587 5.02403 9.08617 5.22861 8.88524C5.4332 8.68431 5.71067 8.57143 6 8.57143C6.28933 8.57143 6.5668 8.68431 6.77139 8.88524C6.97597 9.08617 7.09091 9.3587 7.09091 9.64286ZM2.72727 4.28571V3.21429C2.72727 2.3618 3.07208 1.54424 3.68583 0.941442C4.29959 0.338647 5.13202 0 6 0C6.86798 0 7.70041 0.338647 8.31417 0.941442C8.92792 1.54424 9.27273 2.3618 9.27273 3.21429V4.28571H10.0909C10.5972 4.28571 11.0828 4.48326 11.4408 4.83489C11.7989 5.18652 12 5.66343 12 6.16071V13.125C12 13.6223 11.7989 14.0992 11.4408 14.4508C11.0828 14.8025 10.5972 15 10.0909 15H1.90909C1.40277 15 0.917184 14.8025 0.55916 14.4508C0.201136 14.0992 0 13.6223 0 13.125V6.16071C0 5.66343 0.201136 5.18652 0.55916 4.83489C0.917184 4.48326 1.40277 4.28571 1.90909 4.28571H2.72727ZM3.81818 3.21429V4.28571H8.18182V3.21429C8.18182 2.64596 7.95195 2.10092 7.54278 1.69906C7.13361 1.29719 6.57865 1.07143 6 1.07143C5.42135 1.07143 4.86639 1.29719 4.45722 1.69906C4.04805 2.10092 3.81818 2.64596 3.81818 3.21429ZM1.90909 5.35714C1.6921 5.35714 1.48399 5.4418 1.33055 5.5925C1.17711 5.7432 1.09091 5.94759 1.09091 6.16071V13.125C1.09091 13.3381 1.17711 13.5425 1.33055 13.6932C1.48399 13.8439 1.6921 13.9286 1.90909 13.9286H10.0909C10.3079 13.9286 10.516 13.8439 10.6695 13.6932C10.8229 13.5425 10.9091 13.3381 10.9091 13.125V6.16071C10.9091 5.94759 10.8229 5.7432 10.6695 5.5925C10.516 5.4418 10.3079 5.35714 10.0909 5.35714H1.90909Z" fill="#AFAFAF"/>
</svg>
