<svg width="20" height="15" viewBox="0 0 20 15" fill="none" xmlns="http://www.w3.org/2000/svg">
<path d="M4.21875 9.54545V8.18182H5.625V9.54545H4.21875ZM0 2.72727C0 2.00396 0.296316 1.31026 0.823762 0.7988C1.35121 0.287337 2.06658 0 2.8125 0H12.6562C13.4022 0 14.1175 0.287337 14.645 0.7988C15.1724 1.31026 15.4688 2.00396 15.4688 2.72727V11.5909C15.4688 11.7717 15.5428 11.9452 15.6747 12.073C15.8066 12.2009 15.9854 12.2727 16.1719 12.2727C16.3584 12.2727 16.5372 12.2009 16.6691 12.073C16.8009 11.9452 16.875 11.7717 16.875 11.5909V2.72727C17.6209 2.72727 18.3363 3.01461 18.8637 3.52607C19.3912 4.03754 19.6875 4.73123 19.6875 5.45455V11.5909C19.6875 12.4951 19.3171 13.3622 18.6578 14.0015C17.9985 14.6408 17.1043 15 16.1719 15H3.51562C2.58322 15 1.68901 14.6408 1.0297 14.0015C0.370395 13.3622 0 12.4951 0 11.5909V2.72727ZM3.51562 4.09091C3.32914 4.09091 3.1503 4.16274 3.01844 4.29061C2.88658 4.41847 2.8125 4.5919 2.8125 4.77273C2.8125 4.95356 2.88658 5.12698 3.01844 5.25485C3.1503 5.38271 3.32914 5.45455 3.51562 5.45455H11.9531C12.1396 5.45455 12.3184 5.38271 12.4503 5.25485C12.5822 5.12698 12.6562 4.95356 12.6562 4.77273C12.6562 4.5919 12.5822 4.41847 12.4503 4.29061C12.3184 4.16274 12.1396 4.09091 11.9531 4.09091H3.51562ZM3.51562 6.81818C3.32914 6.81818 3.1503 6.89002 3.01844 7.01788C2.88658 7.14575 2.8125 7.31917 2.8125 7.5V10.2273C2.8125 10.4081 2.88658 10.5815 3.01844 10.7094C3.1503 10.8373 3.32914 10.9091 3.51562 10.9091H6.32812C6.51461 10.9091 6.69345 10.8373 6.82531 10.7094C6.95717 10.5815 7.03125 10.4081 7.03125 10.2273V7.5C7.03125 7.31917 6.95717 7.14575 6.82531 7.01788C6.69345 6.89002 6.51461 6.81818 6.32812 6.81818H3.51562ZM9.14062 6.81818C8.95414 6.81818 8.7753 6.89002 8.64344 7.01788C8.51158 7.14575 8.4375 7.31917 8.4375 7.5C8.4375 7.68083 8.51158 7.85425 8.64344 7.98212C8.7753 8.10998 8.95414 8.18182 9.14062 8.18182H11.9531C12.1396 8.18182 12.3184 8.10998 12.4503 7.98212C12.5822 7.85425 12.6562 7.68083 12.6562 7.5C12.6562 7.31917 12.5822 7.14575 12.4503 7.01788C12.3184 6.89002 12.1396 6.81818 11.9531 6.81818H9.14062ZM9.14062 9.54545C8.95414 9.54545 8.7753 9.61729 8.64344 9.74515C8.51158 9.87302 8.4375 10.0464 8.4375 10.2273C8.4375 10.4081 8.51158 10.5815 8.64344 10.7094C8.7753 10.8373 8.95414 10.9091 9.14062 10.9091H11.9531C12.1396 10.9091 12.3184 10.8373 12.4503 10.7094C12.5822 10.5815 12.6562 10.4081 12.6562 10.2273C12.6562 10.0464 12.5822 9.87302 12.4503 9.74515C12.3184 9.61729 12.1396 9.54545 11.9531 9.54545H9.14062Z" fill="white"/>
</svg>
