<svg width="16" height="12" viewBox="0 0 16 12" fill="none" xmlns="http://www.w3.org/2000/svg">
<path d="M14.4784 5.25857C14.817 5.70143 14.817 6.29929 14.4784 6.74143C13.412 8.13357 10.8534 11 7.86629 11C4.87915 11 2.32057 8.13357 1.25415 6.74143C1.08942 6.52938 1 6.26851 1 6C1 5.73149 1.08942 5.47062 1.25415 5.25857C2.32057 3.86643 4.87915 1 7.86629 1C10.8534 1 13.412 3.86643 14.4784 5.25857V5.25857Z" stroke="#AFAFAF" stroke-linecap="round" stroke-linejoin="round"/>
<path d="M7.86628 8.14295C9.04974 8.14295 10.0091 7.18356 10.0091 6.0001C10.0091 4.81663 9.04974 3.85724 7.86628 3.85724C6.68281 3.85724 5.72342 4.81663 5.72342 6.0001C5.72342 7.18356 6.68281 8.14295 7.86628 8.14295Z" stroke="#AFAFAF" stroke-linecap="round" stroke-linejoin="round"/>
</svg>
