<svg width="22" height="22" viewBox="0 0 22 22" fill="none" xmlns="http://www.w3.org/2000/svg">
<path d="M1.13721 0.0829951C1.00568 0.0172092 0.858325 -0.0103417 0.711909 0.00347638C0.565493 0.0172944 0.425895 0.0719268 0.308993 0.161159C0.192091 0.250391 0.102578 0.370641 0.0506368 0.508229C-0.00130411 0.645818 -0.0135882 0.795222 0.0151819 0.939447L2.21995 8.56108C2.26107 8.70311 2.34142 8.83066 2.45178 8.92907C2.56214 9.02748 2.69803 9.09275 2.84383 9.11738L11.7855 10.615C12.2066 10.6983 12.2066 11.3017 11.7855 11.385L2.84383 12.8826C2.69803 12.9073 2.56214 12.9725 2.45178 13.0709C2.34142 13.1693 2.26107 13.2969 2.21995 13.4389L0.0151819 21.0606C-0.0135882 21.2048 -0.00130411 21.3542 0.0506368 21.4918C0.102578 21.6294 0.192091 21.7496 0.308993 21.8388C0.425895 21.9281 0.565493 21.9827 0.711909 21.9965C0.858325 22.0103 1.00568 21.9828 1.13721 21.917L21.5663 11.7024C21.6967 11.6371 21.8063 11.5368 21.8828 11.4128C21.9594 11.2887 22 11.1458 22 11C22 10.8542 21.9594 10.7113 21.8828 10.5872C21.8063 10.4632 21.6967 10.3629 21.5663 10.2976L1.13721 0.0829951Z" fill="#267B18"/>
</svg>
