<svg width="23" height="23" viewBox="0 0 23 23" fill="none" xmlns="http://www.w3.org/2000/svg">
<path fill-rule="evenodd" clip-rule="evenodd" d="M21.0833 4.47222C20.575 4.47222 20.0875 4.67416 19.728 5.0336C19.3686 5.39305 19.1667 5.88056 19.1667 6.38889V7.66667H23V6.38889C23 5.88056 22.7981 5.39305 22.4386 5.0336C22.0792 4.67416 21.5917 4.47222 21.0833 4.47222ZM23 8.94444H19.1667V19.4861L21.0833 22.3611L23 19.4861V8.94444ZM0 1.91667V21.0833C0 21.5917 0.201934 22.0792 0.561379 22.4386C0.920823 22.7981 1.40834 23 1.91667 23H15.9722C16.4806 23 16.9681 22.7981 17.3275 22.4386C17.687 22.0792 17.8889 21.5917 17.8889 21.0833V1.91667C17.8889 1.40834 17.687 0.920823 17.3275 0.561379C16.9681 0.201934 16.4806 0 15.9722 0H1.91667C1.40834 0 0.920823 0.201934 0.561379 0.561379C0.201934 0.920823 0 1.40834 0 1.91667ZM8.94444 5.75C8.94444 5.58056 9.01175 5.41805 9.13157 5.29824C9.25138 5.17842 9.41389 5.11111 9.58333 5.11111H14.6944C14.8639 5.11111 15.0264 5.17842 15.1462 5.29824C15.266 5.41805 15.3333 5.58056 15.3333 5.75C15.3333 5.91944 15.266 6.08195 15.1462 6.20176C15.0264 6.32158 14.8639 6.38889 14.6944 6.38889H9.58333C9.41389 6.38889 9.25138 6.32158 9.13157 6.20176C9.01175 6.08195 8.94444 5.91944 8.94444 5.75ZM9.58333 7.66667C9.41389 7.66667 9.25138 7.73398 9.13157 7.85379C9.01175 7.97361 8.94444 8.13611 8.94444 8.30556C8.94444 8.475 9.01175 8.6375 9.13157 8.75732C9.25138 8.87713 9.41389 8.94444 9.58333 8.94444H14.6944C14.8639 8.94444 15.0264 8.87713 15.1462 8.75732C15.266 8.6375 15.3333 8.475 15.3333 8.30556C15.3333 8.13611 15.266 7.97361 15.1462 7.85379C15.0264 7.73398 14.8639 7.66667 14.6944 7.66667H9.58333ZM8.94444 14.0556C8.94444 13.8861 9.01175 13.7236 9.13157 13.6038C9.25138 13.484 9.41389 13.4167 9.58333 13.4167H14.6944C14.8639 13.4167 15.0264 13.484 15.1462 13.6038C15.266 13.7236 15.3333 13.8861 15.3333 14.0556C15.3333 14.225 15.266 14.3875 15.1462 14.5073C15.0264 14.6271 14.8639 14.6944 14.6944 14.6944H9.58333C9.41389 14.6944 9.25138 14.6271 9.13157 14.5073C9.01175 14.3875 8.94444 14.225 8.94444 14.0556ZM9.58333 15.9722C9.41389 15.9722 9.25138 16.0395 9.13157 16.1593C9.01175 16.2792 8.94444 16.4417 8.94444 16.6111C8.94444 16.7806 9.01175 16.9431 9.13157 17.0629C9.25138 17.1827 9.41389 17.25 9.58333 17.25H14.6944C14.8639 17.25 15.0264 17.1827 15.1462 17.0629C15.266 16.9431 15.3333 16.7806 15.3333 16.6111C15.3333 16.4417 15.266 16.2792 15.1462 16.1593C15.0264 16.0395 14.8639 15.9722 14.6944 15.9722H9.58333ZM3.83333 14.0556V15.9722H5.75V14.0556H3.83333ZM3.19444 12.7778H6.38889C6.55833 12.7778 6.72084 12.8451 6.84065 12.9649C6.96047 13.0847 7.02778 13.2472 7.02778 13.4167V16.6111C7.02778 16.7806 6.96047 16.9431 6.84065 17.0629C6.72084 17.1827 6.55833 17.25 6.38889 17.25H3.19444C3.025 17.25 2.8625 17.1827 2.74268 17.0629C2.62287 16.9431 2.55556 16.7806 2.55556 16.6111V13.4167C2.55556 13.2472 2.62287 13.0847 2.74268 12.9649C2.8625 12.8451 3.025 12.7778 3.19444 12.7778ZM7.47947 6.20169C7.59585 6.0812 7.66025 5.91981 7.65879 5.7523C7.65734 5.58478 7.59014 5.42454 7.47169 5.30609C7.35323 5.18763 7.19299 5.12044 7.02548 5.11899C6.85796 5.11753 6.69658 5.18193 6.57608 5.29831L4.47222 7.40217L3.64614 6.57608C3.52564 6.4597 3.36426 6.39531 3.19674 6.39676C3.02923 6.39822 2.86899 6.46541 2.75053 6.58387C2.63208 6.70232 2.56489 6.86256 2.56343 7.03008C2.56198 7.19759 2.62637 7.35898 2.74275 7.47947L4.47222 9.20894L7.47947 6.20169Z" fill="white"/>
</svg>
