<svg width="13" height="13" viewBox="0 0 13 13" fill="none" xmlns="http://www.w3.org/2000/svg">
<path d="M6.02397 0C2.69541 0 0 2.70144 0 6.03C0 9.35856 2.69541 12.06 6.02397 12.06C9.35856 12.06 12.06 9.35856 12.06 6.03C12.06 2.70144 9.35856 0 6.02397 0ZM8.442 8.442C8.38622 8.4979 8.31995 8.54225 8.24701 8.57251C8.17406 8.60277 8.09586 8.61834 8.01689 8.61834C7.93791 8.61834 7.85971 8.60277 7.78677 8.57251C7.71382 8.54225 7.64756 8.4979 7.59177 8.442L5.6079 6.45813C5.55092 6.40228 5.5056 6.33569 5.47454 6.26219C5.44349 6.1887 5.42733 6.10978 5.427 6.03V3.618C5.427 3.28635 5.69835 3.015 6.03 3.015C6.36165 3.015 6.633 3.28635 6.633 3.618V5.78277L8.442 7.59177C8.67717 7.82694 8.67717 8.20683 8.442 8.442Z" fill="#353535"/>
</svg>
