<svg width="18" height="18" viewBox="0 0 18 18" fill="none" xmlns="http://www.w3.org/2000/svg">
<path d="M15.6176 3.06299H14.7056C14.7047 3.06299 14.7038 3.06335 14.7032 3.064C14.7025 3.06464 14.7022 3.06552 14.7022 3.06643V14.7022C14.7022 15.0272 14.8313 15.3388 15.061 15.5685C15.2908 15.7983 15.6024 15.9274 15.9274 15.9274C16.2523 15.9274 16.5639 15.7983 16.7937 15.5685C17.0235 15.3388 17.1525 15.0272 17.1525 14.7022V4.59791C17.1525 4.19082 16.9908 3.80041 16.703 3.51256C16.4151 3.2247 16.0247 3.06299 15.6176 3.06299Z" fill="white"/>
<path d="M13.477 14.7022V1.53148C13.477 1.33036 13.4374 1.13121 13.3604 0.945406C13.2835 0.759599 13.1706 0.59077 13.0284 0.448559C12.8862 0.306348 12.7174 0.193541 12.5316 0.116577C12.3458 0.0396128 12.1466 0 11.9455 0H1.53148C1.1253 0 0.735767 0.161352 0.448559 0.448559C0.161352 0.735767 0 1.1253 0 1.53148V15.0085C0 15.5771 0.225892 16.1225 0.627983 16.5246C1.03007 16.9266 1.57543 17.1525 2.14407 17.1525H15.2707C15.2765 17.1526 15.2823 17.1515 15.2876 17.1493C15.293 17.1471 15.2979 17.1439 15.302 17.1398C15.3061 17.1357 15.3093 17.1308 15.3115 17.1254C15.3137 17.1201 15.3148 17.1143 15.3148 17.1085C15.3147 17.0989 15.3115 17.0895 15.3057 17.0819C15.2998 17.0743 15.2915 17.0688 15.2822 17.0664C14.764 16.9242 14.3068 16.616 13.9807 16.1889C13.6546 15.7618 13.4776 15.2395 13.477 14.7022ZM2.45036 3.67554C2.45036 3.51308 2.5149 3.35726 2.62979 3.24238C2.74467 3.12749 2.90048 3.06295 3.06295 3.06295H5.51332C5.67579 3.06295 5.8316 3.12749 5.94648 3.24238C6.06137 3.35726 6.12591 3.51308 6.12591 3.67554V6.12591C6.12591 6.28838 6.06137 6.44419 5.94648 6.55907C5.8316 6.67396 5.67579 6.7385 5.51332 6.7385H3.06295C2.90048 6.7385 2.74467 6.67396 2.62979 6.55907C2.5149 6.44419 2.45036 6.28838 2.45036 6.12591V3.67554ZM10.414 14.0896H3.08018C2.75053 14.0896 2.46759 13.8361 2.45113 13.5065C2.44714 13.4236 2.46001 13.3409 2.48895 13.2632C2.5179 13.1855 2.56232 13.1144 2.61952 13.0544C2.67673 12.9944 2.74553 12.9466 2.82175 12.9139C2.89797 12.8813 2.98003 12.8644 3.06295 12.8644H10.3968C10.7265 12.8644 11.0094 13.1179 11.0259 13.4475C11.0299 13.5303 11.017 13.6131 10.988 13.6908C10.9591 13.7685 10.9147 13.8396 10.8575 13.8996C10.8003 13.9596 10.7315 14.0074 10.6552 14.0401C10.579 14.0727 10.497 14.0896 10.414 14.0896ZM10.414 11.6392H3.08018C2.75053 11.6392 2.46759 11.3858 2.45113 11.0561C2.44714 10.9733 2.46001 10.8905 2.48895 10.8128C2.5179 10.7351 2.56232 10.6641 2.61952 10.604C2.67673 10.544 2.74553 10.4962 2.82175 10.4636C2.89797 10.4309 2.98003 10.4141 3.06295 10.414H10.3968C10.7265 10.414 11.0094 10.6675 11.0259 10.9972C11.0299 11.08 11.017 11.1628 10.988 11.2405C10.9591 11.3182 10.9147 11.3892 10.8575 11.4492C10.8003 11.5093 10.7315 11.5571 10.6552 11.5897C10.579 11.6224 10.497 11.6392 10.414 11.6392ZM10.414 9.18886H3.08018C2.75053 9.18886 2.46759 8.9354 2.45113 8.60575C2.44714 8.52292 2.46001 8.44015 2.48895 8.36244C2.5179 8.28473 2.56232 8.21371 2.61952 8.15368C2.67673 8.09364 2.74553 8.04585 2.82175 8.01319C2.89797 7.98053 2.98003 7.96369 3.06295 7.96368H10.3968C10.7265 7.96368 11.0094 8.21714 11.0259 8.54679C11.0299 8.62962 11.017 8.71239 10.988 8.7901C10.9591 8.86781 10.9147 8.93883 10.8575 8.99887C10.8003 9.0589 10.7315 9.10669 10.6552 9.13935C10.579 9.17201 10.497 9.18885 10.414 9.18886ZM10.414 6.7385H7.98091C7.65126 6.7385 7.36832 6.48504 7.35185 6.15539C7.34786 6.07256 7.36073 5.98978 7.38968 5.91208C7.41862 5.83437 7.46304 5.76335 7.52025 5.70331C7.57745 5.64328 7.64625 5.59548 7.72247 5.56283C7.7987 5.53017 7.88076 5.51332 7.96368 5.51332H10.3968C10.7265 5.51332 11.0094 5.76678 11.0259 6.09643C11.0299 6.17925 11.017 6.26203 10.988 6.33974C10.9591 6.41745 10.9147 6.48847 10.8575 6.5485C10.8003 6.60854 10.7315 6.65633 10.6552 6.68899C10.579 6.72165 10.497 6.73849 10.414 6.7385ZM10.414 4.28814H7.98091C7.65126 4.28814 7.36832 4.03468 7.35185 3.70503C7.34786 3.6222 7.36073 3.53942 7.38968 3.46171C7.41862 3.384 7.46304 3.31298 7.52025 3.25295C7.57745 3.19292 7.64625 3.14512 7.72247 3.11246C7.7987 3.0798 7.88076 3.06296 7.96368 3.06295H10.3968C10.7265 3.06295 11.0094 3.31641 11.0259 3.64606C11.0299 3.72889 11.017 3.81167 10.988 3.88938C10.9591 3.96708 10.9147 4.03811 10.8575 4.09814C10.8003 4.15817 10.7315 4.20597 10.6552 4.23863C10.579 4.27128 10.497 4.28813 10.414 4.28814Z" fill="white"/>
</svg>
