<svg width="18" height="22" viewBox="0 0 18 22" fill="none" xmlns="http://www.w3.org/2000/svg">
<path d="M1.22185 19.5556H15.8885C16.1982 19.5557 16.4963 19.6733 16.7225 19.8847C16.9488 20.0961 17.0864 20.3855 17.1075 20.6945C17.1286 21.0034 17.0317 21.3089 16.8363 21.5491C16.6408 21.7893 16.3615 21.9464 16.0547 21.9886L15.8885 22H1.22185C0.912182 21.9999 0.614094 21.8823 0.387819 21.6709C0.161543 21.4594 0.0239513 21.17 0.00284433 20.8611C-0.0182626 20.5521 0.0786891 20.2467 0.27411 20.0065C0.46953 19.7663 0.74885 19.6092 1.05563 19.567L1.22185 19.5556ZM8.38896 0.0114074L8.55518 0C8.85053 1.24551e-05 9.13589 0.106973 9.35848 0.301102C9.58107 0.495231 9.72583 0.763394 9.766 1.056L9.7774 1.22222V13.7508L13.4522 10.0776C13.6595 9.87045 13.9342 9.74463 14.2265 9.7231C14.5187 9.70156 14.809 9.78574 15.0444 9.9603L15.1813 10.0776C15.3884 10.2849 15.5143 10.5597 15.5358 10.8519C15.5573 11.1441 15.4731 11.4344 15.2986 11.6698L15.1813 11.8067L9.41889 17.5674C9.21194 17.7744 8.93759 17.9003 8.64571 17.9221C8.35382 17.9439 8.0638 17.8603 7.82837 17.6864L7.69148 17.5674L1.92911 11.8067C1.71042 11.5886 1.58241 11.2958 1.5708 10.9872C1.5592 10.6785 1.66486 10.377 1.86655 10.1431C2.06824 9.90918 2.351 9.76031 2.65797 9.72641C2.96495 9.6925 3.27338 9.77606 3.52126 9.9603L3.65815 10.0776L7.33296 13.7541V1.22222C7.33297 0.926872 7.43993 0.641517 7.63406 0.418928C7.82819 0.196339 8.09635 0.051575 8.38896 0.0114074Z" fill="#353535"/>
</svg>
