<svg width="21" height="16" viewBox="0 0 21 16" fill="none" xmlns="http://www.w3.org/2000/svg">
<path d="M14.175 3.33333C14.175 2.44928 13.8293 1.60143 13.2139 0.976311C12.5986 0.351189 11.764 0 10.8937 0H3.28125C2.41101 0 1.57641 0.351189 0.961056 0.976311C0.345702 1.60143 0 2.44928 0 3.33333V12.6667C0 13.5507 0.345702 14.3986 0.961056 15.0237C1.57641 15.6488 2.41101 16 3.28125 16H10.8937C11.764 16 12.5986 15.6488 13.2139 15.0237C13.8293 14.3986 14.175 13.5507 14.175 12.6667V3.33333ZM15.225 10.9504L18.8795 13.8496C19.7416 14.5333 21 13.9093 21 12.7989V3.2016C21 2.09067 19.7416 1.4672 18.8795 2.15093L15.225 5.0496V10.9499V10.9504Z" fill="#353535"/>
</svg>
