<svg width="16" height="16" viewBox="0 0 16 16" fill="none" xmlns="http://www.w3.org/2000/svg">
<path d="M15.414 0.585573C15.0389 0.210631 14.5303 0 14 0C13.4697 0 12.9611 0.210631 12.586 0.585573L5 8.17157V10.9996H7.828L15.414 3.41357C15.7889 3.03852 15.9996 2.5299 15.9996 1.99957C15.9996 1.46924 15.7889 0.960628 15.414 0.585573Z" fill="#AFAFAF"/>
<path fill-rule="evenodd" clip-rule="evenodd" d="M0 3.99963C0 3.4692 0.210714 2.96049 0.585786 2.58542C0.960859 2.21035 1.46957 1.99963 2 1.99963H6C6.26522 1.99963 6.51957 2.10499 6.70711 2.29253C6.89464 2.48006 7 2.73442 7 2.99963C7 3.26485 6.89464 3.5192 6.70711 3.70674C6.51957 3.89428 6.26522 3.99963 6 3.99963H2V13.9996H12V9.99963C12 9.73442 12.1054 9.48006 12.2929 9.29253C12.4804 9.10499 12.7348 8.99963 13 8.99963C13.2652 8.99963 13.5196 9.10499 13.7071 9.29253C13.8946 9.48006 14 9.73442 14 9.99963V13.9996C14 14.5301 13.7893 15.0388 13.4142 15.4138C13.0391 15.7889 12.5304 15.9996 12 15.9996H2C1.46957 15.9996 0.960859 15.7889 0.585786 15.4138C0.210714 15.0388 0 14.5301 0 13.9996V3.99963Z" fill="#AFAFAF"/>
</svg>
