<svg width="120" height="120" viewBox="0 0 120 120" fill="none" xmlns="http://www.w3.org/2000/svg">
<circle cx="60" cy="60" r="60" fill="#267B18"/>
<path d="M81.8495 35.4497C81.7944 35.5031 81.7427 35.5599 81.6948 35.6198L54.8384 69.838L38.6534 53.6452C37.5539 52.6208 36.0998 52.0631 34.5973 52.0896C33.0948 52.1161 31.6612 52.7247 30.5986 53.7874C29.536 54.85 28.9273 56.2835 28.9008 57.786C28.8743 59.2886 29.432 60.7427 30.4565 61.8421L50.9178 82.3112C51.469 82.8614 52.1254 83.2949 52.8478 83.586C53.5702 83.877 54.3438 84.0196 55.1225 84.0051C55.9012 83.9907 56.669 83.8196 57.3802 83.502C58.0913 83.1844 58.7312 82.7268 59.2616 82.1565L90.1314 43.5692C91.1826 42.466 91.7573 40.9934 91.7313 39.4698C91.7053 37.9462 91.0808 36.494 89.9926 35.4272C88.9045 34.3604 87.4403 33.7647 85.9164 33.7689C84.3926 33.7731 82.9317 34.3769 81.8495 35.4497Z" fill="white"/>
</svg>
