<svg width="21" height="19" viewBox="0 0 21 19" fill="none" xmlns="http://www.w3.org/2000/svg">
<path d="M3.83333 1L1 3.83333M19.8889 3.83333L17.0556 1M4.77778 16.1111L2.88889 18M16.1111 16.1111L18 18M10.4444 7.61111V13.2778M7.61111 10.4444H13.2778M10.4444 18C12.4483 18 14.3701 17.204 15.787 15.787C17.204 14.3701 18 12.4483 18 10.4444C18 8.44059 17.204 6.5188 15.787 5.10186C14.3701 3.68492 12.4483 2.88889 10.4444 2.88889C8.44059 2.88889 6.5188 3.68492 5.10186 5.10186C3.68492 6.5188 2.88889 8.44059 2.88889 10.4444C2.88889 12.4483 3.68492 14.3701 5.10186 15.787C6.5188 17.204 8.44059 18 10.4444 18Z" stroke="#353535" stroke-width="2" stroke-linecap="round" stroke-linejoin="round"/>
</svg>
