<svg width="15" height="12" viewBox="0 0 15 12" fill="none" xmlns="http://www.w3.org/2000/svg">
<path d="M12.7201 1.00676C12.9735 0.786224 13.3108 0.664302 13.6607 0.666722C14.0107 0.669142 14.3459 0.795715 14.5956 1.01973C14.8454 1.24375 14.9902 1.54769 14.9994 1.86742C15.0087 2.18715 14.8817 2.49766 14.6452 2.73342L7.46649 10.9392C7.34305 11.0607 7.19406 11.1582 7.02844 11.2259C6.86282 11.2936 6.68397 11.3301 6.50258 11.3331C6.32118 11.3362 6.14097 11.3058 5.97273 11.2438C5.80448 11.1817 5.65165 11.0893 5.52337 10.9721L0.762732 6.62088C0.630156 6.50797 0.52382 6.37181 0.450068 6.22052C0.376316 6.06923 0.336659 5.90592 0.333462 5.74032C0.330265 5.57472 0.363595 5.41022 0.431462 5.25665C0.499329 5.10308 0.600343 4.96358 0.728479 4.84646C0.856614 4.72935 1.00925 4.63702 1.17727 4.57499C1.34529 4.51296 1.52526 4.4825 1.70644 4.48542C1.88763 4.48834 2.06631 4.52459 2.23183 4.592C2.39736 4.65941 2.54633 4.7566 2.66986 4.87777L6.43735 8.31958L12.6859 1.04294C12.6972 1.03028 12.7092 1.0182 12.7219 1.00676H12.7201Z" fill="white"/>
</svg>
