<svg width="9" height="12" viewBox="0 0 9 12" fill="none" xmlns="http://www.w3.org/2000/svg">
<path d="M8.74258 6.49349L0.941528 11.8934C0.851501 11.9557 0.746147 11.9922 0.636875 11.9989C0.527603 12.0056 0.418576 11.9823 0.321601 11.9315C0.224626 11.8807 0.143398 11.8043 0.0867109 11.7107C0.0300236 11.617 3.79005e-05 11.5097 9.53674e-07 11.4002V0.600388C-7.16233e-05 0.490876 0.0298339 0.383432 0.0864773 0.289702C0.143121 0.195971 0.224341 0.119529 0.321336 0.0686594C0.418331 0.0177895 0.5274 -0.00556743 0.636724 0.00111986C0.746049 0.00780716 0.851459 0.0442836 0.941528 0.106596L8.74258 5.50651C8.82205 5.56197 8.88696 5.63579 8.93178 5.72171C8.9766 5.80763 9 5.9031 9 6C9 6.0969 8.9766 6.19237 8.93178 6.27829C8.88696 6.36421 8.82205 6.43803 8.74258 6.49349Z" fill="white" fill-opacity="0.3"/>
</svg>
