<svg width="9" height="12" viewBox="0 0 9 12" fill="none" xmlns="http://www.w3.org/2000/svg">
<path d="M0.257421 6.49349L8.05847 11.8934C8.1485 11.9557 8.25385 11.9922 8.36312 11.9989C8.4724 12.0056 8.58142 11.9823 8.6784 11.9315C8.77537 11.8807 8.8566 11.8043 8.91329 11.7107C8.96998 11.617 8.99996 11.5097 9 11.4002V0.600388C9.00007 0.490876 8.97017 0.383432 8.91352 0.289702C8.85688 0.195971 8.77566 0.119529 8.67866 0.0686594C8.58167 0.0177895 8.4726 -0.00556743 8.36328 0.00111986C8.25395 0.00780716 8.14854 0.0442836 8.05847 0.106596L0.257421 5.50651C0.177945 5.56197 0.113039 5.63579 0.0682217 5.72171C0.023404 5.80763 0 5.9031 0 6C0 6.0969 0.023404 6.19237 0.0682217 6.27829C0.113039 6.36421 0.177945 6.43803 0.257421 6.49349Z" fill="white"/>
</svg>
