<svg width="17" height="17" viewBox="0 0 17 17" fill="none" xmlns="http://www.w3.org/2000/svg">
<path d="M0 15.5833H17V17H0V15.5833ZM0 10.625H17V12.0417H0V10.625ZM5.66667 1.41667V5.66667H1.41667V1.41667H5.66667ZM5.66667 0H1.41667C1.04094 0 0.680609 0.149255 0.414932 0.414932C0.149255 0.680609 0 1.04094 0 1.41667V5.66667C0 6.04239 0.149255 6.40272 0.414932 6.6684C0.680609 6.93408 1.04094 7.08333 1.41667 7.08333H5.66667C6.04239 7.08333 6.40272 6.93408 6.6684 6.6684C6.93408 6.40272 7.08333 6.04239 7.08333 5.66667V1.41667C7.08333 1.04094 6.93408 0.680609 6.6684 0.414932C6.40272 0.149255 6.04239 0 5.66667 0ZM15.5833 1.41667V5.66667H11.3333V1.41667H15.5833ZM15.5833 0H11.3333C10.9576 0 10.5973 0.149255 10.3316 0.414932C10.0659 0.680609 9.91667 1.04094 9.91667 1.41667V5.66667C9.91667 6.04239 10.0659 6.40272 10.3316 6.6684C10.5973 6.93408 10.9576 7.08333 11.3333 7.08333H15.5833C15.9591 7.08333 16.3194 6.93408 16.5851 6.6684C16.8507 6.40272 17 6.04239 17 5.66667V1.41667C17 1.04094 16.8507 0.680609 16.5851 0.414932C16.3194 0.149255 15.9591 0 15.5833 0Z" fill="white"/>
</svg>
