<svg width="33" height="36" viewBox="0 0 33 36" fill="none" xmlns="http://www.w3.org/2000/svg">
<path d="M1.24217 32.4C1.73785 32.4 2.13969 31.9982 2.13969 31.5025V21.6C2.13969 17.7809 3.65264 14.1182 6.34573 11.4177C9.03881 8.71714 12.6914 7.2 16.5 7.2C20.3086 7.2 23.9612 8.71714 26.6543 11.4177C29.3474 14.1182 30.8603 17.7809 30.8603 21.6V31.5025C30.8603 31.9982 31.2621 32.4 31.7578 32.4C32.2535 32.4 32.6554 32.8018 32.6554 33.2975V35C32.6554 35.5523 32.2076 36 31.6554 36H1.34465C0.792364 36 0.344647 35.5523 0.344647 35V33.2975C0.344647 32.8018 0.74648 32.4 1.24217 32.4ZM5.77588 20.6013C5.72497 21.1513 6.17748 21.6 6.72977 21.6H8.31984C8.87213 21.6 9.31272 21.1501 9.38897 20.6031C9.60381 19.0619 10.3129 17.6219 11.4229 16.5088C12.5322 15.3964 13.9672 14.6856 15.5032 14.4697C16.0501 14.3928 16.5 13.9523 16.5 13.4V11.8C16.5 11.2477 16.0513 10.7952 15.5014 10.8465C13.0113 11.0789 10.6674 12.1753 8.88429 13.9632C7.10058 15.7519 6.00713 18.1033 5.77588 20.6013ZM14.705 1C14.705 0.447716 15.1527 0 15.705 0H17.295C17.8473 0 18.295 0.447715 18.295 1V4.4C18.295 4.95228 17.8473 5.4 17.295 5.4H15.705C15.1527 5.4 14.705 4.95228 14.705 4.4V1ZM29.7537 5.76444C30.1445 5.37261 30.7792 5.37261 31.1699 5.76444L32.296 6.89364C32.6851 7.28387 32.6852 7.9154 32.2962 8.30573L29.9023 10.7073C29.5117 11.0992 28.8771 11.0994 28.4863 10.7077L27.3592 9.57833C26.9698 9.18807 26.9696 8.55622 27.359 8.16582L29.7537 5.76444ZM0.704185 8.30573C0.31496 7.91543 0.31496 7.28377 0.704184 6.89347L1.83027 5.76427C2.22095 5.37251 2.85549 5.37244 3.24627 5.7641L5.64169 8.16502C6.03078 8.555 6.03119 9.18621 5.64261 9.57669L4.51715 10.7077C4.12653 11.1002 3.49128 11.1005 3.10024 10.7084L0.704185 8.30573Z" fill="white"/>
</svg>
