<svg width="12" height="12" viewBox="0 0 12 12" fill="none" xmlns="http://www.w3.org/2000/svg">
<path d="M8.45874 0.52697C8.26061 0.328845 8.01894 0.179731 7.753 0.0915104C7.48706 0.00328934 7.20419 -0.0216006 6.92692 0.0188238C6.64966 0.0592482 6.38567 0.163869 6.15599 0.324352C5.92631 0.484834 5.73728 0.696742 5.60397 0.94319L3.77237 4.33172L0.977576 5.44484C0.885278 5.48154 0.803538 5.54058 0.739698 5.61668C0.675858 5.69277 0.631917 5.78353 0.61182 5.8808C0.591724 5.97807 0.596101 6.07881 0.624559 6.17398C0.653017 6.26914 0.704665 6.35574 0.774864 6.42601L2.75041 8.40156L0.176324 10.9756L0 12L1.02436 11.8237L3.59844 9.24959L5.57279 11.2239C5.64297 11.2942 5.7295 11.3459 5.8246 11.3744C5.91969 11.403 6.02039 11.4074 6.11765 11.3875C6.21491 11.3675 6.30569 11.3237 6.38184 11.26C6.45799 11.1963 6.51714 11.1146 6.55396 11.0224L7.67308 8.22523L11.0568 6.39483C11.3033 6.26152 11.5152 6.07249 11.6756 5.84281C11.8361 5.61313 11.9408 5.34914 11.9812 5.07188C12.0216 4.79461 11.9967 4.51174 11.9085 4.2458C11.8203 3.97986 11.6712 3.73819 11.473 3.54006L8.45874 0.52697ZM6.65951 1.51294C6.70404 1.43092 6.76709 1.36042 6.84365 1.30706C6.92021 1.25369 7.00817 1.21893 7.10053 1.20553C7.19289 1.19214 7.2871 1.20048 7.37567 1.2299C7.46424 1.25933 7.54471 1.30901 7.6107 1.375L10.625 4.3893C10.6909 4.45537 10.7406 4.53592 10.7699 4.62454C10.7992 4.71317 10.8075 4.80741 10.7939 4.89978C10.7804 4.99215 10.7455 5.08009 10.6921 5.15659C10.6386 5.2331 10.568 5.29607 10.4859 5.34048L6.91141 7.27285C6.78823 7.33962 6.69232 7.44741 6.64032 7.57752L5.7779 9.73178L2.26822 6.2221L4.41889 5.36447C4.54899 5.31248 4.65678 5.21657 4.72355 5.09339L6.65951 1.51294Z" fill="#353535"/>
</svg>
