<svg width="97" height="97" viewBox="0 0 97 97" fill="none" xmlns="http://www.w3.org/2000/svg">
<g filter="url(#filter0_d_238_955)">
<circle cx="48.5217" cy="44.8913" r="34.8913" fill="white"/>
<circle cx="48.5217" cy="44.8913" r="30.966" stroke="#267B18" stroke-width="7.85054"/>
</g>
<path d="M38.4813 34.4239C39.9266 34.4239 41.1073 35.5955 41.1073 37.0407C41.1073 38.4859 42.2789 39.6575 43.7242 39.6575H54.1916C55.6368 39.6575 56.8084 38.4859 56.8084 37.0407C56.8084 35.5955 57.9892 34.4239 59.4344 34.4239C60.1514 34.4239 60.7337 35.0061 60.7337 35.7231V56.6762C60.7334 57.0207 60.5964 57.351 60.3528 57.5946C60.1092 57.8381 59.7789 57.9751 59.4344 57.9755H38.4813C38.1369 57.9751 37.8066 57.8381 37.563 57.5946C37.3194 57.351 37.1824 57.0207 37.1821 56.6762V35.7231C37.1821 35.0061 37.7643 34.4239 38.4813 34.4239ZM45.0326 52.7418C45.0326 52.0192 44.4468 51.4334 43.7242 51.4334C43.0016 51.4334 42.4158 52.0192 42.4158 52.7418C42.4158 53.4644 43.0016 54.0502 43.7242 54.0502C44.4468 54.0502 45.0326 53.4644 45.0326 52.7418ZM45.0326 48.8165C45.0326 48.0939 44.4468 47.5081 43.7242 47.5081C43.0016 47.5081 42.4158 48.0939 42.4158 48.8165C42.4158 49.5391 43.0016 50.1249 43.7242 50.1249C44.4468 50.1249 45.0326 49.5391 45.0326 48.8165ZM45.0326 44.8912C45.0326 44.1686 44.4468 43.5828 43.7242 43.5828C43.0016 43.5828 42.4158 44.1686 42.4158 44.8912C42.4158 45.6139 43.0016 46.1997 43.7242 46.1997C44.4468 46.1997 45.0326 45.6139 45.0326 44.8912ZM51.5747 31.807C53.02 31.807 54.1916 32.9786 54.1916 34.4239C54.1916 35.8691 53.02 37.0407 51.5747 37.0407H46.341C44.8958 37.0407 43.7242 35.8691 43.7242 34.4239C43.7242 32.9786 44.8958 31.807 46.341 31.807H51.5747Z" fill="#267B18"/>
<defs>
<filter id="filter0_d_238_955" x="0.546193" y="0.404891" width="95.9511" height="95.9511" filterUnits="userSpaceOnUse" color-interpolation-filters="sRGB">
<feFlood flood-opacity="0" result="BackgroundImageFix"/>
<feColorMatrix in="SourceAlpha" type="matrix" values="0 0 0 0 0 0 0 0 0 0 0 0 0 0 0 0 0 0 127 0" result="hardAlpha"/>
<feOffset dy="3.48913"/>
<feGaussianBlur stdDeviation="6.54212"/>
<feComposite in2="hardAlpha" operator="out"/>
<feColorMatrix type="matrix" values="0 0 0 0 0 0 0 0 0 0 0 0 0 0 0 0 0 0 0.35 0"/>
<feBlend mode="normal" in2="BackgroundImageFix" result="effect1_dropShadow_238_955"/>
<feBlend mode="normal" in="SourceGraphic" in2="effect1_dropShadow_238_955" result="shape"/>
</filter>
</defs>
</svg>
