<svg width="22" height="21" viewBox="0 0 22 21" fill="none" xmlns="http://www.w3.org/2000/svg">
<path d="M21.6774 6.86537C21.6748 6.33066 21.4625 5.8186 21.0866 5.44049C20.7108 5.06239 20.2018 4.8488 19.6702 4.84614H16.8602V2.01923C16.8576 1.48451 16.6453 0.972455 16.2694 0.59435C15.8936 0.216245 15.3846 0.00265372 14.853 0H2.00717C1.47565 0.00265372 0.966647 0.216245 0.590801 0.59435C0.214954 0.972455 0.00263787 1.48451 0 2.01923V14.9423C0 15.2636 0.126881 15.5718 0.352732 15.799C0.578582 16.0262 0.884901 16.1538 1.2043 16.1538C1.47948 16.1561 1.74642 16.0595 1.95699 15.8812L4.8172 13.5591V15.75C4.81984 16.2847 5.03216 16.7967 5.40801 17.1748C5.78385 17.553 6.29285 17.7665 6.82437 17.7692H16.0774L19.7204 20.7274C19.931 20.9056 20.1979 21.0023 20.4731 21C20.7925 21 21.0988 20.8723 21.3247 20.6451C21.5505 20.4179 21.6774 20.1097 21.6774 19.7884V6.86537ZM2.4086 12.4081V2.42307H14.4516V10.5H5.17849C4.90032 10.4979 4.63029 10.5944 4.41577 10.7726L2.4086 12.4081ZM17.2616 15.6187C17.0471 15.4406 16.7771 15.344 16.4989 15.3461H7.22581V12.9231H14.853C15.3846 12.9204 15.8936 12.7068 16.2694 12.3287C16.6453 11.9506 16.8576 11.4385 16.8602 10.9038V7.26922H19.2688V17.2543L17.2616 15.6187Z" fill="white"/>
</svg>
