<svg width="85" height="85" viewBox="0 0 85 85" fill="none" xmlns="http://www.w3.org/2000/svg">
<g filter="url(#filter0_d_177_1176)">
<rect x="15" y="15" width="55" height="55" rx="20" fill="#267B18"/>
</g>
<path d="M53.6774 38.8654C53.6748 38.3307 53.4625 37.8186 53.0866 37.4405C52.7108 37.0624 52.2018 36.8488 51.6702 36.8461H48.8602V34.0192C48.8576 33.4845 48.6453 32.9725 48.2694 32.5943C47.8936 32.2162 47.3846 32.0027 46.853 32H34.0072C33.4756 32.0027 32.9666 32.2162 32.5908 32.5943C32.215 32.9725 32.0026 33.4845 32 34.0192V46.9423C32 47.2636 32.1269 47.5718 32.3527 47.799C32.5786 48.0262 32.8849 48.1538 33.2043 48.1538C33.4795 48.1561 33.7464 48.0595 33.957 47.8812L36.8172 45.5591V47.75C36.8198 48.2847 37.0322 48.7967 37.408 49.1748C37.7839 49.553 38.2929 49.7665 38.8244 49.7692H48.0774L51.7204 52.7274C51.931 52.9056 52.1979 53.0023 52.4731 53C52.7925 53 53.0988 52.8723 53.3247 52.6451C53.5505 52.4179 53.6774 52.1097 53.6774 51.7884V38.8654ZM34.4086 44.4081V34.4231H46.4516V42.5H37.1785C36.9003 42.4979 36.6303 42.5944 36.4158 42.7726L34.4086 44.4081ZM49.2616 47.6187C49.0471 47.4406 48.7771 47.344 48.4989 47.3461H39.2258V44.9231H46.853C47.3846 44.9204 47.8936 44.7068 48.2694 44.3287C48.6453 43.9506 48.8576 43.4385 48.8602 42.9038V39.2692H51.2688V49.2543L49.2616 47.6187Z" fill="white"/>
<defs>
<filter id="filter0_d_177_1176" x="0" y="0" width="85" height="85" filterUnits="userSpaceOnUse" color-interpolation-filters="sRGB">
<feFlood flood-opacity="0" result="BackgroundImageFix"/>
<feColorMatrix in="SourceAlpha" type="matrix" values="0 0 0 0 0 0 0 0 0 0 0 0 0 0 0 0 0 0 127 0" result="hardAlpha"/>
<feOffset/>
<feGaussianBlur stdDeviation="7.5"/>
<feComposite in2="hardAlpha" operator="out"/>
<feColorMatrix type="matrix" values="0 0 0 0 0 0 0 0 0 0 0 0 0 0 0 0 0 0 0.15 0"/>
<feBlend mode="normal" in2="BackgroundImageFix" result="effect1_dropShadow_177_1176"/>
<feBlend mode="normal" in="SourceGraphic" in2="effect1_dropShadow_177_1176" result="shape"/>
</filter>
</defs>
</svg>
