<svg width="22" height="19" viewBox="0 0 22 19" fill="none" xmlns="http://www.w3.org/2000/svg">
<path d="M18.8681 0H2.24306C1.00594 0 0 0.946833 0 2.11111V16.8889C0 18.0532 1.00594 19 2.24306 19H18.8681C20.1052 19 21.1111 18.0532 21.1111 16.8889V2.11111C21.1111 0.946833 20.1052 0 18.8681 0ZM18.8681 16.8889H2.24306C2.18289 16.8889 2.14172 16.872 2.12378 16.872C2.11639 16.872 2.11217 16.8741 2.11111 16.8804L2.09844 2.15967C2.10583 2.14911 2.15333 2.11111 2.24306 2.11111H18.8681C18.9514 2.11217 18.9968 2.14067 19 2.11956L19.0127 16.8403C19.0053 16.8509 18.9578 16.8889 18.8681 16.8889Z" fill="#353535"/>
<path d="M4.22217 5.22217C4.22217 4.66988 4.66988 4.22217 5.22217 4.22217H9.5555C10.1078 4.22217 10.5555 4.66988 10.5555 5.22217V9.5555C10.5555 10.1078 10.1078 10.5555 9.5555 10.5555H5.22217C4.66988 10.5555 4.22217 10.1078 4.22217 9.5555V5.22217ZM11.6111 12.6666H5.22217C4.66988 12.6666 4.22217 13.1143 4.22217 13.6666V13.7777C4.22217 14.33 4.66988 14.7777 5.22217 14.7777H15.8888C16.4411 14.7777 16.8888 14.33 16.8888 13.7777V13.6666C16.8888 13.1143 16.4411 12.6666 15.8888 12.6666H12.6666H11.6111ZM12.6666 9.44439C12.6666 8.89211 13.1143 8.44439 13.6666 8.44439H15.8888C16.4411 8.44439 16.8888 8.89211 16.8888 9.44439V9.5555C16.8888 10.1078 16.4411 10.5555 15.8888 10.5555H13.6666C13.1143 10.5555 12.6666 10.1078 12.6666 9.5555V9.44439ZM12.6666 5.22217C12.6666 4.66988 13.1143 4.22217 13.6666 4.22217H15.8888C16.4411 4.22217 16.8888 4.66988 16.8888 5.22217V5.33328C16.8888 5.88556 16.4411 6.33328 15.8888 6.33328H13.6666C13.1143 6.33328 12.6666 5.88556 12.6666 5.33328V5.22217Z" fill="#353535"/>
</svg>
