<svg width="20" height="20" viewBox="0 0 20 20" fill="none" xmlns="http://www.w3.org/2000/svg">
<circle cx="10" cy="10" r="10" fill="white"/>
<path d="M10.4911 19.7321L10.4554 19.7263C10.4604 19.7302 10.4663 19.7328 10.4726 19.7338C10.4788 19.7348 10.4852 19.7342 10.4911 19.7321ZM18.6117 6.95446C18.6015 6.9006 18.5736 6.85168 18.5324 6.81547C18.4913 6.77926 18.4392 6.75785 18.3845 6.75461C18.3298 6.75138 18.2755 6.76653 18.2304 6.79764C18.1852 6.82875 18.1518 6.87404 18.1353 6.92634C18.1196 6.97599 18.0885 7.01936 18.0466 7.05024C18.0046 7.08112 17.954 7.09792 17.9019 7.09821H17.2112C17.1665 7.09826 17.1227 7.08606 17.0845 7.06295L16.0853 6.46384C16.0471 6.44072 16.0032 6.42852 15.9586 6.42857H14.3603C14.3117 6.42852 14.2641 6.44297 14.2237 6.47009L12.2528 7.78393C12.2187 7.80662 12.1908 7.83744 12.1716 7.8736C12.1525 7.90977 12.1426 7.95014 12.1429 7.99107V9.85446C12.1429 9.89912 12.155 9.94295 12.1779 9.98125C12.2009 10.0196 12.2339 10.0509 12.2733 10.0719L14.8577 11.4513C14.8965 11.4722 14.929 11.5031 14.952 11.5408C14.9749 11.5784 14.9873 11.6215 14.988 11.6656L15.0001 12.7143C15.0008 12.7577 15.0129 12.8002 15.0352 12.8374C15.0576 12.8746 15.0893 12.9053 15.1273 12.9263L16.1657 13.5009C16.2042 13.5223 16.2363 13.5535 16.2586 13.5914C16.281 13.6293 16.2928 13.6725 16.2929 13.7165V15.8862C16.2929 15.9336 16.3066 15.98 16.3324 16.0198C16.3581 16.0596 16.3947 16.0912 16.438 16.1107C16.4812 16.1302 16.5291 16.1369 16.576 16.1298C16.6229 16.1228 16.6667 16.1023 16.7023 16.071C17.1211 15.7022 17.7215 15.1638 17.8014 15.0406C17.9336 14.8362 18.0575 14.6268 18.1733 14.4125C18.413 13.9685 18.6161 13.5057 18.7804 13.0286C19.3465 11.3897 18.8992 8.44375 18.6117 6.95446ZM11.3572 12.0893L8.61927 10.0357C8.58836 10.0125 8.55077 10 8.51213 10H7.21302C7.1908 10 7.16879 9.99566 7.14826 9.98715C7.12773 9.97865 7.10908 9.96618 7.09338 9.95045L6.48088 9.33794C6.46428 9.32137 6.44458 9.30822 6.42291 9.29926C6.40123 9.2903 6.378 9.28569 6.35454 9.28571H3.97999C3.94652 9.28571 3.91381 9.27579 3.88598 9.2572C3.85816 9.23861 3.83647 9.21218 3.82366 9.18127C3.81086 9.15035 3.80751 9.11633 3.81404 9.08351C3.82056 9.05068 3.83668 9.02054 3.86034 8.99687L4.23624 8.62098C4.25193 8.60525 4.27058 8.59277 4.29112 8.58427C4.31165 8.57577 4.33366 8.5714 4.35588 8.57143H5.80097C5.8788 8.57143 5.9545 8.546 6.01655 8.49902C6.0786 8.45204 6.12361 8.38607 6.14472 8.31116L6.45231 7.21741C6.45887 7.1939 6.47017 7.17199 6.48553 7.15303C6.50089 7.13406 6.51997 7.11844 6.54159 7.10714L7.76793 6.47589C7.79553 6.46163 7.81866 6.44005 7.83481 6.41351C7.85095 6.38697 7.85948 6.35651 7.85945 6.32545V5.76741C7.8595 5.73278 7.87009 5.699 7.88981 5.67053L8.54159 4.73214C8.56114 4.70395 8.58888 4.68244 8.62106 4.67053L9.53311 4.32812C9.56538 4.31603 9.59318 4.29438 9.61281 4.26606C9.63243 4.23774 9.64294 4.2041 9.64293 4.16964V3.66071C9.64293 3.63281 9.63604 3.60533 9.62288 3.58072C9.60972 3.55612 9.5907 3.53514 9.56749 3.51964L8.6532 2.91161C8.62808 2.89508 8.59905 2.88547 8.56903 2.88374C8.53901 2.88202 8.50907 2.88824 8.48222 2.90178L7.23758 3.52411C7.2091 3.53816 7.17724 3.54391 7.14565 3.54067C7.11407 3.53743 7.08403 3.52534 7.059 3.5058L6.46883 3.03928C6.44869 3.02309 6.43251 3.0025 6.42154 2.9791C6.41057 2.9557 6.40509 2.9301 6.40553 2.90426C6.40596 2.87842 6.41228 2.85302 6.42403 2.83C6.43577 2.80698 6.45262 2.78694 6.47329 2.77143L6.95275 2.4183C6.97446 2.40238 6.99204 2.3815 7.00403 2.3574C7.01602 2.3333 7.02207 2.30668 7.02168 2.27977C7.02129 2.25285 7.01446 2.22642 7.00177 2.20268C6.98908 2.17894 6.9709 2.15858 6.94874 2.1433L6.20186 1.62232C6.17601 1.60412 6.14556 1.59354 6.11398 1.59181C6.08241 1.59007 6.05099 1.59724 6.02329 1.6125C5.7532 1.76027 4.96079 2.19777 4.67954 2.39464C3.37824 3.3072 2.331 4.53636 1.63668 5.96607C1.55543 6.13393 1.45499 6.30491 1.44516 6.48928C1.43534 6.67366 1.2907 7.08527 1.23043 7.25178C1.2223 7.27429 1.21905 7.29827 1.2209 7.32213C1.22275 7.34599 1.22965 7.36919 1.24115 7.39018L2.83445 10.3179C2.84879 10.3445 2.87008 10.3667 2.89606 10.3821L4.5724 11.3884C4.59414 11.4013 4.6127 11.419 4.62669 11.4401C4.64067 11.4612 4.64974 11.4852 4.6532 11.5103L4.98892 13.9451C4.9922 13.9684 5.00028 13.9908 5.01265 14.0109C5.02502 14.0309 5.04141 14.0482 5.06079 14.0616L6.36883 14.9607C6.40672 14.9868 6.4331 15.0264 6.44249 15.0714L7.13624 18.3661C7.14012 18.3854 7.14754 18.4039 7.15811 18.4205C7.22329 18.5259 7.48311 18.9116 7.7965 18.9688C7.76749 18.9768 7.74159 18.9951 7.71258 19.0036C7.78786 19.0168 7.86237 19.0341 7.93579 19.0554C8.02508 19.0795 8.11436 19.1 8.20365 19.1192C8.34338 19.1469 8.35722 19.1683 8.42418 19.0442C8.51347 18.8781 8.6157 18.821 8.69204 18.8004C8.72355 18.7932 8.75236 18.7772 8.77519 18.7543C8.79801 18.7314 8.81391 18.7025 8.82106 18.671L9.27061 16.5871C9.28006 16.5434 9.30555 16.5048 9.34204 16.479L11.351 15.0549C11.3743 15.0384 11.3934 15.0165 11.4065 14.9911C11.4196 14.9657 11.4264 14.9375 11.4264 14.9089V12.2321C11.4267 12.2046 11.4206 12.1774 11.4086 12.1526C11.3966 12.1278 11.379 12.1061 11.3572 12.0893Z" fill="#353535"/>
<path d="M10.2679 0.715576C10.2679 0.715576 10.105 0.724951 10.072 0.725844C9.82999 0.732987 9.58862 0.749653 9.34784 0.775844C8.47013 0.871062 7.61054 1.0913 6.79517 1.42986C6.90365 1.50486 6.71704 1.57361 6.71704 1.57361L7.00901 2.14415H8.57151L9.64293 2.67986L10.5804 2.14415L10.2679 0.715576ZM14.3853 3.93254L15.1045 3.30754C15.1271 3.288 15.1443 3.26314 15.1548 3.23522C15.1652 3.20729 15.1685 3.1772 15.1643 3.14769C15.1601 3.11817 15.1486 3.09017 15.1309 3.06624C15.1131 3.0423 15.0896 3.0232 15.0626 3.01067L14.2228 2.62093C14.1802 2.60103 14.1314 2.59878 14.0871 2.61467C14.0428 2.63055 14.0065 2.66329 13.9862 2.70575L13.6403 3.42942C13.6214 3.46898 13.6178 3.51408 13.6301 3.55615C13.6423 3.59821 13.6696 3.6343 13.7068 3.65754L14.1737 3.9495C14.2062 3.96969 14.2442 3.97893 14.2823 3.97588C14.3204 3.97283 14.3565 3.95764 14.3853 3.93254ZM17.7519 4.85263L17.4916 4.45084C17.4876 4.44459 17.484 4.43834 17.4804 4.43165C17.4336 4.33567 17.0456 3.55218 16.7215 3.24817C16.4782 3.01825 16.409 3.08433 16.3898 3.13522C16.3788 3.16336 16.3605 3.18804 16.3367 3.20665L15.0492 4.24727C15.0175 4.27293 14.9779 4.28695 14.9371 4.287H14.2706C14.2472 4.28699 14.2239 4.29159 14.2022 4.30055C14.1806 4.30951 14.1609 4.32266 14.1443 4.33924L13.6086 4.87495C13.592 4.89154 13.5788 4.91123 13.5698 4.93291C13.5608 4.95459 13.5562 4.97782 13.5562 5.00129C13.5562 5.02476 13.5608 5.048 13.5698 5.06967C13.5788 5.09135 13.592 5.11105 13.6086 5.12763L14.1443 5.66334C14.1609 5.67992 14.1806 5.69307 14.2022 5.70203C14.2239 5.71099 14.2472 5.71559 14.2706 5.71558H17.6264C17.6505 5.7156 17.6744 5.71074 17.6966 5.70129C17.7187 5.69185 17.7388 5.67801 17.7554 5.66062C17.7721 5.64323 17.7851 5.62263 17.7936 5.60008C17.8022 5.57754 17.806 5.5535 17.805 5.52942L17.7804 4.94236C17.7791 4.91043 17.7692 4.87945 17.7519 4.85263Z" fill="#353535"/>
<path d="M10 1.78571C11.9004 1.78556 13.7421 2.44435 15.2113 3.64985C16.6804 4.85535 17.6861 6.53297 18.057 8.39685C18.4279 10.2607 18.1411 12.1956 17.2453 13.8717C16.3496 15.5477 14.9004 16.8614 13.1447 17.5888C11.389 18.3162 9.43537 18.4123 7.61674 17.8607C5.7981 17.3092 4.22697 16.1441 3.17105 14.5641C2.11513 12.984 1.63974 11.0867 1.8259 9.19536C2.01206 7.30408 2.84824 5.53585 4.19196 4.19196C4.95285 3.42673 5.85797 2.82004 6.85493 2.407C7.85189 1.99397 8.92087 1.78279 10 1.78571ZM10 0C4.47768 0 0 4.47768 0 10C0 15.5223 4.47768 20 10 20C15.5223 20 20 15.5223 20 10C20 4.47768 15.5223 0 10 0Z" fill="#353535"/>
</svg>
