<svg width="22" height="18" viewBox="0 0 22 18" fill="none" xmlns="http://www.w3.org/2000/svg">
<path d="M13.3468 2.76923H18.8604C19.2452 2.76919 19.6258 2.84935 19.9779 3.0046C20.33 3.15985 20.6459 3.38678 20.9054 3.67092C21.1649 3.95506 21.3623 4.29016 21.4851 4.65486C21.6079 5.01956 21.6533 5.40584 21.6185 5.78908L20.7365 15.4814C20.674 16.1694 20.3565 16.8092 19.8465 17.2752C19.3364 17.7412 18.6706 17.9997 17.9797 18H3.65036C2.95949 17.9997 2.29367 17.7412 1.78362 17.2752C1.27356 16.8092 0.956114 16.1694 0.89359 15.4814L0.0115903 5.78908C-0.0474133 5.1477 0.120136 4.50592 0.485129 3.97523L0.431129 2.76923C0.431129 2.03479 0.722886 1.33042 1.24222 0.811089C1.76155 0.291757 2.46591 0 3.20036 0H8.28467C9.01905 0.000156842 9.7233 0.292017 10.2425 0.811385L11.389 1.95785C11.9082 2.47721 12.6124 2.76907 13.3468 2.76923ZM1.82405 2.93538C2.12036 2.82738 2.43882 2.76923 2.77113 2.76923H10.2425L9.26359 1.79031C9.00398 1.53062 8.65186 1.38469 8.28467 1.38462H3.20036C2.83765 1.38455 2.4894 1.52681 2.23047 1.78081C1.97155 2.03482 1.82264 2.38028 1.81574 2.74292L1.82405 2.93538Z" fill="#353535"/>
</svg>
