<svg width="24" height="22" viewBox="0 0 24 22" fill="none" xmlns="http://www.w3.org/2000/svg">
<path d="M14.236 5.90115V4.03924C14.236 3.75717 14.1775 3.47817 14.0641 3.21988C13.9508 2.96158 13.7851 2.72961 13.5775 2.53862C13.37 2.34763 13.125 2.20178 12.8582 2.11028C12.5914 2.01878 12.3085 1.98363 12.0274 2.00704L3.87007 2.68614C3.36029 2.72859 2.88508 2.96109 2.53869 3.33751C2.1923 3.71393 2.00003 4.20679 2 4.71833V17.2806C2.00003 17.7922 2.1923 18.2851 2.53869 18.6615C2.88508 19.0379 3.36029 19.2704 3.87007 19.3128L12.0274 19.993C12.3086 20.0164 12.5916 19.9812 12.8585 19.8896C13.1253 19.7981 13.3703 19.6521 13.5779 19.461C13.7855 19.2699 13.9512 19.0378 14.0644 18.7794C14.1777 18.521 14.2361 18.2419 14.236 17.9597V16.0978M13.2164 10.9995H22.3934H13.2164ZM22.3934 10.9995L18.9948 6.92082L22.3934 10.9995ZM22.3934 10.9995L18.9948 15.0782L22.3934 10.9995Z" stroke="#353535" stroke-width="3" stroke-linecap="round" stroke-linejoin="round"/>
</svg>
