<svg width="20" height="20" viewBox="0 0 20 20" fill="none" xmlns="http://www.w3.org/2000/svg">
<path d="M7.33741 19.7345C8.07695 19.911 8.83399 20 9.59403 20C10.3524 19.9992 11.1081 19.9096 11.8456 19.733C12.0395 19.6863 12.2143 19.581 12.3462 19.4314C12.4781 19.2818 12.5607 19.0952 12.5827 18.8969L12.7517 17.3614C12.7802 17.0868 12.9059 16.8314 13.106 16.6412C13.3061 16.4509 13.5675 16.3384 13.8432 16.3238C14.0267 16.3158 14.2093 16.3503 14.3773 16.4238L15.7808 17.0394C15.9029 17.0942 16.035 17.123 16.1688 17.1239C16.3026 17.1247 16.4351 17.0977 16.5579 17.0444C16.6814 16.9918 16.7919 16.9138 16.8829 16.8153C17.9149 15.7029 18.6854 14.374 19.138 12.9256C19.1973 12.7335 19.1954 12.5277 19.1327 12.3367C19.07 12.1456 18.9496 11.9788 18.788 11.8591L17.5409 10.939C17.3924 10.8312 17.2715 10.6897 17.1881 10.5261C17.1048 10.3625 17.0613 10.1816 17.0613 9.998C17.0613 9.81442 17.1048 9.63346 17.1881 9.4699C17.2715 9.30634 17.3924 9.16483 17.5409 9.05695L18.784 8.13891C18.946 8.01903 19.0667 7.85173 19.1295 7.66019C19.1922 7.46865 19.1938 7.26234 19.134 7.06985C18.6813 5.62132 17.9098 4.29257 16.8764 3.18116C16.7395 3.03481 16.5605 2.93456 16.3642 2.89426C16.1678 2.85395 15.9638 2.87558 15.7803 2.95615L14.3773 3.57418C14.2323 3.63968 14.0743 3.67418 13.9142 3.67418C13.6262 3.67362 13.3486 3.56675 13.1345 3.37408C12.9204 3.18141 12.785 2.91649 12.7542 2.63013L12.5842 1.10006C12.5624 0.899234 12.4784 0.71024 12.3439 0.559523C12.2094 0.408806 12.0312 0.30391 11.8341 0.259513C11.1003 0.095685 10.3514 0.00871176 9.59953 0C8.84252 0.00873696 8.08846 0.095873 7.34941 0.260013C7.15258 0.304157 6.97447 0.408716 6.83999 0.559066C6.70551 0.709417 6.62138 0.89804 6.59938 1.09855L6.42937 2.62963C6.39729 2.91645 6.26056 3.18137 6.04535 3.37367C5.82572 3.56025 5.54889 3.66611 5.26081 3.67368C5.10192 3.67358 4.94477 3.64055 4.79929 3.57668L3.39922 2.95865C3.2151 2.87736 3.01023 2.85544 2.81309 2.89594C2.61594 2.93645 2.43631 3.03736 2.29916 3.18466C1.26714 4.29631 0.496649 5.6246 0.0440479 7.07235C-0.015742 7.26476 -0.0141682 7.47101 0.0485511 7.66248C0.11127 7.85395 0.232026 8.02116 0.394065 8.14091L1.63813 9.05895C1.86037 9.2232 2.01742 9.4607 2.08156 9.7295C2.14569 9.99831 2.11279 10.2811 1.98865 10.528C1.90609 10.6917 1.78619 10.8337 1.63863 10.9425L0.393565 11.8621C0.231667 11.9817 0.110996 12.1488 0.0482798 12.34C-0.0144361 12.5313 -0.0160898 12.7374 0.0435479 12.9296C0.495348 14.3788 1.2659 15.7084 2.29866 16.8208C2.43509 16.9681 2.61406 17.0691 2.81062 17.1098C3.00718 17.1505 3.21154 17.1288 3.39522 17.0479L4.80429 16.4293C4.94979 16.3653 5.1068 16.3323 5.26581 16.3323H5.26981C5.55674 16.3327 5.83352 16.4386 6.04743 16.6298C6.26135 16.821 6.39747 17.0843 6.42987 17.3694L6.59888 18.8979C6.62089 19.0964 6.70363 19.2833 6.83581 19.433C6.968 19.5828 7.14317 19.688 7.33741 19.7345ZM9.59053 13.1252C8.76168 13.1252 7.96679 12.7959 7.38071 12.2098C6.79463 11.6237 6.46537 10.8288 6.46537 10C6.46537 9.17116 6.79463 8.37626 7.38071 7.79018C7.96679 7.2041 8.76168 6.87484 9.59053 6.87484C10.4194 6.87484 11.2143 7.2041 11.8003 7.79018C12.3864 8.37626 12.7157 9.17116 12.7157 10C12.7157 10.8288 12.3864 11.6237 11.8003 12.2098C11.2143 12.7959 10.4194 13.1252 9.59053 13.1252Z" fill="#353535"/>
</svg>
