<svg width="166" height="166" viewBox="0 0 166 166" fill="none" xmlns="http://www.w3.org/2000/svg">
<circle cx="84.5" cy="84.5" r="80.5" fill="#386041" fill-opacity="0.71"/>
<path d="M83 155.625C63.7387 155.625 45.2662 147.973 31.6464 134.354C18.0265 120.734 10.375 102.261 10.375 83C10.375 63.7387 18.0265 45.2662 31.6464 31.6464C45.2662 18.0265 63.7387 10.375 83 10.375C102.261 10.375 120.734 18.0265 134.354 31.6464C147.973 45.2662 155.625 63.7387 155.625 83C155.625 102.261 147.973 120.734 134.354 134.354C120.734 147.973 102.261 155.625 83 155.625ZM83 166C105.013 166 126.124 157.255 141.69 141.69C157.255 126.124 166 105.013 166 83C166 60.987 157.255 39.8757 141.69 24.3101C126.124 8.74462 105.013 0 83 0C60.987 0 39.8757 8.74462 24.3101 24.3101C8.74462 39.8757 0 60.987 0 83C0 105.013 8.74462 126.124 24.3101 141.69C39.8757 157.255 60.987 166 83 166Z" fill="white"/>
<path d="M113.815 51.5617C113.741 51.6333 113.671 51.7095 113.607 51.7899L77.5747 97.6993L55.8598 75.974C54.3848 74.5995 52.4338 73.8513 50.4179 73.8868C48.402 73.9224 46.4787 74.739 45.053 76.1647C43.6273 77.5904 42.8107 79.5137 42.7751 81.5296C42.7396 83.5455 43.4878 85.4965 44.8623 86.9715L72.3146 114.434C73.0541 115.172 73.9348 115.754 74.904 116.145C75.8732 116.535 76.9112 116.726 77.9559 116.707C79.0007 116.688 80.0308 116.458 80.9849 116.032C81.939 115.606 82.7975 114.992 83.5092 114.227L124.926 62.4554C126.336 60.9752 127.108 58.9995 127.073 56.9553C127.038 54.9111 126.2 52.9628 124.74 51.5315C123.28 50.1002 121.316 49.301 119.271 49.3067C117.227 49.3123 115.267 50.1223 113.815 51.5617Z" fill="white"/>
</svg>
