<svg width="31" height="31" viewBox="0 0 31 31" fill="none" xmlns="http://www.w3.org/2000/svg">
<rect width="31" height="31" rx="5" fill="#267B18"/>
<path d="M20.6684 10.3826C20.9276 10.1345 21.2725 9.99732 21.6304 10C21.9883 10.0028 22.3311 10.1452 22.5865 10.3972C22.842 10.6492 22.9901 10.9911 22.9995 11.3508C23.009 11.7105 22.8791 12.0598 22.6372 12.3251L15.2954 21.5565C15.1691 21.6933 15.0167 21.803 14.8474 21.8791C14.678 21.9553 14.4951 21.9963 14.3095 21.9998C14.124 22.0032 13.9397 21.969 13.7676 21.8992C13.5956 21.8294 13.4393 21.7255 13.3081 21.5935L8.43924 16.6985C8.30365 16.5714 8.1949 16.4183 8.11947 16.2481C8.04404 16.0779 8.00348 15.8941 8.00021 15.7078C7.99695 15.5215 8.03103 15.3365 8.10044 15.1637C8.16985 14.9909 8.27316 14.834 8.40421 14.7022C8.53526 14.5705 8.69136 14.4666 8.8632 14.3968C9.03504 14.3271 9.2191 14.2928 9.4044 14.2961C9.5897 14.2994 9.77245 14.3401 9.94173 14.416C10.111 14.4918 10.2634 14.6011 10.3897 14.7375L14.2428 18.6095L20.6334 10.4233C20.6449 10.409 20.6572 10.3955 20.6702 10.3826H20.6684Z" fill="white"/>
</svg>
