<svg width="13" height="15" viewBox="0 0 13 15" fill="none" xmlns="http://www.w3.org/2000/svg">
<path d="M13 9.84375V1.40625C13 0.62959 12.3761 0 11.6071 0H2.78571C1.24719 0 0 1.25918 0 2.8125V12.1875C0 13.7408 1.24719 15 2.78571 15H12.0714C12.5842 15 13 14.5802 13 14.0889C13 13.7455 12.8083 13.4584 12.5357 13.2949V10.9113C12.8201 10.6289 13 10.2598 13 9.84375ZM4.15246 3.75H9.72388C10.0054 3.75 10.2143 3.96094 10.2143 4.21875C10.2143 4.47656 10.0054 4.6875 9.75 4.6875H4.15246C3.92321 4.6875 3.71429 4.47656 3.71429 4.21875C3.71429 3.96094 3.92321 3.75 4.15246 3.75ZM4.15246 5.625H9.72388C10.0054 5.625 10.2143 5.83594 10.2143 6.09375C10.2143 6.35156 10.0054 6.5625 9.75 6.5625H4.15246C3.92321 6.5625 3.71429 6.35156 3.71429 6.09375C3.71429 5.83594 3.92321 5.625 4.15246 5.625ZM11.1429 13.125H2.78571C2.27297 13.125 1.85714 12.7052 1.85714 12.1875C1.85714 11.6698 2.27297 11.25 2.78571 11.25H11.1429V13.125Z" fill="white"/>
</svg>
