<svg width="18" height="20" viewBox="0 0 18 20" fill="none" xmlns="http://www.w3.org/2000/svg">
<path d="M17.2973 13.125V1.875C17.2973 0.839453 16.4672 0 15.444 0H3.70656C1.65946 0 0 1.67891 0 3.75V16.25C0 18.3211 1.65946 20 3.70656 20H16.0618C16.744 20 17.2973 19.4402 17.2973 18.7852C17.2973 18.3273 17.0422 17.9445 16.6795 17.7266V14.5484C17.0579 14.1719 17.2973 13.6797 17.2973 13.125ZM5.5251 5H12.9382C13.3127 5 13.5907 5.28125 13.5907 5.625C13.5907 5.96875 13.3127 6.25 12.973 6.25H5.5251C5.22008 6.25 4.94209 5.96875 4.94209 5.625C4.94209 5.28125 5.22008 5 5.5251 5ZM5.5251 7.5H12.9382C13.3127 7.5 13.5907 7.78125 13.5907 8.125C13.5907 8.46875 13.3127 8.75 12.973 8.75H5.5251C5.22008 8.75 4.94209 8.46875 4.94209 8.125C4.94209 7.78125 5.22008 7.5 5.5251 7.5ZM14.8263 17.5H3.70656C3.02432 17.5 2.47104 16.9402 2.47104 16.25C2.47104 15.5598 3.02432 15 3.70656 15H14.8263V17.5Z" fill="#353535"/>
</svg>
