<svg width="21" height="21" viewBox="0 0 21 21" fill="none" xmlns="http://www.w3.org/2000/svg">
<circle cx="10.5" cy="10.5" r="10.5" fill="#267B18"/>
<path d="M13.3239 8.20074C13.3174 8.20711 13.3112 8.2139 13.3055 8.22106L10.0979 12.3078L8.16489 10.3739C8.03358 10.2515 7.85991 10.1849 7.68046 10.1881C7.50101 10.1913 7.32979 10.264 7.20288 10.3909C7.07597 10.5178 7.00327 10.689 7.00011 10.8684C6.99694 11.0479 7.06355 11.2216 7.18591 11.3529L9.62967 13.7976C9.6955 13.8633 9.7739 13.9151 9.86018 13.9498C9.94646 13.9846 10.0389 14.0016 10.1319 13.9999C10.2249 13.9982 10.3166 13.9777 10.4015 13.9398C10.4864 13.9019 10.5628 13.8472 10.6262 13.7791L14.3131 9.17049C14.4386 9.03872 14.5073 8.86284 14.5042 8.68087C14.5011 8.4989 14.4265 8.32546 14.2965 8.19805C14.1666 8.07064 13.9917 7.9995 13.8097 8C13.6277 8.0005 13.4532 8.07261 13.3239 8.20074Z" fill="white"/>
</svg>
