<svg width="18" height="20" viewBox="0 0 18 20" fill="none" xmlns="http://www.w3.org/2000/svg">
<path d="M5 0C4.43168 0 3.88663 0.225765 3.48477 0.627628C3.08291 1.02949 2.85714 1.57454 2.85714 2.14286H1.78571C1.31211 2.14286 0.85791 2.33099 0.523024 2.66588C0.188137 3.00077 0 3.45497 0 3.92857V6.78571C9.16296e-06 7.60728 0.314606 8.39765 0.879174 8.9945C1.44374 9.59135 2.21542 9.94936 3.03571 9.995C3.32177 11.1042 3.93428 12.102 4.79391 12.8591C5.65354 13.6162 6.72068 14.0978 7.85714 14.2414V15.7143H5.35714C4.6941 15.7143 4.05822 15.9777 3.58938 16.4465C3.12053 16.9154 2.85714 17.5512 2.85714 18.2143V18.9286C2.85714 19.2127 2.97002 19.4853 3.17096 19.6862C3.37189 19.8871 3.64441 20 3.92857 20H13.2143C13.4984 20 13.771 19.8871 13.9719 19.6862C14.1728 19.4853 14.2857 19.2127 14.2857 18.9286V18.2143C14.2857 17.5512 14.0223 16.9154 13.5535 16.4465C13.0846 15.9777 12.4488 15.7143 11.7857 15.7143H9.28571V14.2414C10.4222 14.0978 11.4893 13.6162 12.3489 12.8591C13.2086 12.102 13.8211 11.1042 14.1071 9.995C14.9274 9.94936 15.6991 9.59135 16.2637 8.9945C16.8283 8.39765 17.1428 7.60728 17.1429 6.78571V3.92857C17.1429 3.45497 16.9547 3.00077 16.6198 2.66588C16.2849 2.33099 15.8307 2.14286 15.3571 2.14286H14.2857C14.2857 1.57454 14.0599 1.02949 13.6581 0.627628C13.2562 0.225765 12.7112 0 12.1429 0H5ZM14.2857 8.53571V3.57143H15.3571C15.4519 3.57143 15.5427 3.60906 15.6097 3.67603C15.6767 3.74301 15.7143 3.83385 15.7143 3.92857V6.78571C15.7144 7.19738 15.5722 7.59642 15.3119 7.91532C15.0516 8.23422 14.6891 8.45338 14.2857 8.53571ZM2.85714 3.57143V8.53571C2.4538 8.45338 2.09129 8.23422 1.83096 7.91532C1.57064 7.59642 1.42849 7.19738 1.42857 6.78571V3.92857C1.42857 3.83385 1.4662 3.74301 1.53318 3.67603C1.60015 3.60906 1.69099 3.57143 1.78571 3.57143H2.85714Z" fill="#353535"/>
</svg>
