<svg width="19" height="18" viewBox="0 0 19 18" fill="none" xmlns="http://www.w3.org/2000/svg">
<path d="M10.1566 6.55724L6.55548 10.1583C6.4711 10.242 6.40413 10.3416 6.35842 10.4513C6.31272 10.561 6.28918 10.6787 6.28918 10.7975C6.28918 10.9164 6.31272 11.034 6.35842 11.1437C6.40413 11.2534 6.4711 11.353 6.55548 11.4367C6.63917 11.5211 6.73875 11.5881 6.84845 11.6338C6.95816 11.6795 7.07583 11.703 7.19467 11.703C7.31352 11.703 7.43119 11.6795 7.5409 11.6338C7.6506 11.5881 7.75017 11.5211 7.83387 11.4367L11.4349 7.83562C11.6045 7.6661 11.6997 7.43618 11.6997 7.19643C11.6997 6.95669 11.6045 6.72677 11.4349 6.55724C11.2654 6.38772 11.0355 6.29248 10.7958 6.29248C10.556 6.29248 10.3261 6.38772 10.1566 6.55724Z" fill="#353535"/>
<path d="M9.24732 13.8585L8.09498 15.0018C7.44807 15.6684 6.57842 16.0735 5.65191 16.14C4.72539 16.2064 3.80685 15.9294 3.07148 15.3619C2.6828 15.0416 2.36563 14.6434 2.14045 14.1929C1.91527 13.7424 1.78709 13.2497 1.76418 12.7466C1.74127 12.2435 1.82415 11.7412 2.00746 11.2721C2.19078 10.803 2.47044 10.3776 2.8284 10.0233L4.10679 8.73593C4.19117 8.65224 4.25814 8.55267 4.30385 8.44296C4.34955 8.33326 4.37308 8.21559 4.37308 8.09674C4.37308 7.9779 4.34955 7.86023 4.30385 7.75052C4.25814 7.64081 4.19117 7.54124 4.10679 7.45755C4.02309 7.37317 3.92352 7.3062 3.81382 7.26049C3.70411 7.21478 3.58644 7.19125 3.46759 7.19125C3.34875 7.19125 3.23108 7.21478 3.12137 7.26049C3.01167 7.3062 2.91209 7.37317 2.8284 7.45755L1.68506 8.6099C0.721915 9.54258 0.129923 10.7931 0.0189928 12.1292C-0.0919374 13.4653 0.285731 14.7963 1.08188 15.8751C1.55441 16.4881 2.15198 16.9935 2.83487 17.3579C3.51777 17.7222 4.27037 17.937 5.04269 17.9881C5.815 18.0392 6.58934 17.9254 7.31428 17.6542C8.03922 17.383 8.69816 16.9607 9.24732 16.4152L10.5257 15.1368C10.6952 14.9673 10.7905 14.7374 10.7905 14.4977C10.7905 14.2579 10.6952 14.028 10.5257 13.8585C10.3562 13.6889 10.1263 13.5937 9.88651 13.5937C9.64677 13.5937 9.41685 13.6889 9.24732 13.8585ZM15.8913 1.09265C14.8051 0.288225 13.4633 -0.0932884 12.1163 0.019369C10.7694 0.132026 9.50958 0.731149 8.57212 1.70483L7.59983 2.69513C7.4887 2.77591 7.39577 2.87914 7.32706 2.99812C7.25836 3.11709 7.2154 3.24918 7.20097 3.38581C7.18654 3.52244 7.20097 3.66058 7.24331 3.79128C7.28566 3.92199 7.35498 4.04234 7.44678 4.14456C7.53048 4.22894 7.63005 4.29592 7.73975 4.34162C7.84946 4.38733 7.96713 4.41086 8.08597 4.41086C8.20482 4.41086 8.32249 4.38733 8.4322 4.34162C8.5419 4.29592 8.64147 4.22894 8.72517 4.14456L9.89552 2.96521C10.5388 2.29569 11.4075 1.88834 12.3336 1.82183C13.2597 1.75532 14.1776 2.03438 14.91 2.6051C15.3016 2.92542 15.6213 3.32465 15.8482 3.77677C16.0752 4.22889 16.2044 4.72376 16.2273 5.22914C16.2502 5.73452 16.1664 6.23905 15.9813 6.70987C15.7963 7.1807 15.514 7.60724 15.1531 7.9617L13.8747 9.24909C13.7903 9.33278 13.7234 9.43235 13.6776 9.54206C13.6319 9.65176 13.6084 9.76943 13.6084 9.88828C13.6084 10.0071 13.6319 10.1248 13.6776 10.2345C13.7234 10.3442 13.7903 10.4438 13.8747 10.5275C13.9584 10.6118 14.058 10.6788 14.1677 10.7245C14.2774 10.7702 14.3951 10.7938 14.5139 10.7938C14.6327 10.7938 14.7504 10.7702 14.8601 10.7245C14.9698 10.6788 15.0694 10.6118 15.1531 10.5275L16.4315 9.24909C16.9754 8.70002 17.3964 8.04165 17.6667 7.3176C17.937 6.59354 18.0503 5.82032 17.9993 5.04915C17.9482 4.27799 17.7339 3.52647 17.3704 2.84438C17.007 2.16229 16.5029 1.5652 15.8913 1.09265Z" fill="#353535"/>
</svg>
