<svg width="15" height="20" viewBox="0 0 15 20" fill="none" xmlns="http://www.w3.org/2000/svg">
<path d="M9.11625 0H2.5C1.83696 0 1.20107 0.263392 0.732233 0.732233C0.263392 1.20107 0 1.83696 0 2.5V17.5C0 18.163 0.263392 18.7989 0.732233 19.2678C1.20107 19.7366 1.83696 20 2.5 20H12.5C13.163 20 13.7989 19.7366 14.2678 19.2678C14.7366 18.7989 15 18.163 15 17.5V5.88375C14.9999 5.55226 14.8682 5.23437 14.6337 5L10 0.36625C9.76563 0.131813 9.44774 7.07968e-05 9.11625 0V0ZM9.375 4.375V1.875L13.125 5.625H10.625C10.2935 5.625 9.97554 5.4933 9.74112 5.25888C9.5067 5.02446 9.375 4.70652 9.375 4.375ZM3.125 11.25C2.95924 11.25 2.80027 11.1842 2.68306 11.0669C2.56585 10.9497 2.5 10.7908 2.5 10.625C2.5 10.4592 2.56585 10.3003 2.68306 10.1831C2.80027 10.0658 2.95924 10 3.125 10H11.875C12.0408 10 12.1997 10.0658 12.3169 10.1831C12.4342 10.3003 12.5 10.4592 12.5 10.625C12.5 10.7908 12.4342 10.9497 12.3169 11.0669C12.1997 11.1842 12.0408 11.25 11.875 11.25H3.125ZM2.5 13.125C2.5 12.9592 2.56585 12.8003 2.68306 12.6831C2.80027 12.5658 2.95924 12.5 3.125 12.5H11.875C12.0408 12.5 12.1997 12.5658 12.3169 12.6831C12.4342 12.8003 12.5 12.9592 12.5 13.125C12.5 13.2908 12.4342 13.4497 12.3169 13.5669C12.1997 13.6842 12.0408 13.75 11.875 13.75H3.125C2.95924 13.75 2.80027 13.6842 2.68306 13.5669C2.56585 13.4497 2.5 13.2908 2.5 13.125ZM3.125 16.25C2.95924 16.25 2.80027 16.1842 2.68306 16.0669C2.56585 15.9497 2.5 15.7908 2.5 15.625C2.5 15.4592 2.56585 15.3003 2.68306 15.1831C2.80027 15.0658 2.95924 15 3.125 15H8.125C8.29076 15 8.44973 15.0658 8.56694 15.1831C8.68415 15.3003 8.75 15.4592 8.75 15.625C8.75 15.7908 8.68415 15.9497 8.56694 16.0669C8.44973 16.1842 8.29076 16.25 8.125 16.25H3.125Z" fill="#353535"/>
</svg>
