<svg width="17" height="21" viewBox="0 0 17 21" fill="none" xmlns="http://www.w3.org/2000/svg">
<path d="M9.11625 0H2.5C1.83696 0 1.20107 0.263392 0.732233 0.732233C0.263392 1.20107 0 1.83696 0 2.5V17.5C0 18.163 0.263392 18.7989 0.732233 19.2678C1.20107 19.7366 1.83696 20 2.5 20H12.5C13.163 20 13.7989 19.7366 14.2678 19.2678C14.7366 18.7989 15 18.163 15 17.5V5.88375C14.9999 5.55226 14.8682 5.23437 14.6337 5L10 0.36625C9.76563 0.131813 9.44774 7.07968e-05 9.11625 0V0ZM9.375 4.375V1.875L13.125 5.625H10.625C10.2935 5.625 9.97554 5.4933 9.74112 5.25888C9.5067 5.02446 9.375 4.70652 9.375 4.375ZM3.125 11.25C2.95924 11.25 2.80027 11.1842 2.68306 11.0669C2.56585 10.9497 2.5 10.7908 2.5 10.625C2.5 10.4592 2.56585 10.3003 2.68306 10.1831C2.80027 10.0658 2.95924 10 3.125 10H11.875C12.0408 10 12.1997 10.0658 12.3169 10.1831C12.4342 10.3003 12.5 10.4592 12.5 10.625C12.5 10.7908 12.4342 10.9497 12.3169 11.0669C12.1997 11.1842 12.0408 11.25 11.875 11.25H3.125ZM2.5 13.125C2.5 12.9592 2.56585 12.8003 2.68306 12.6831C2.80027 12.5658 2.95924 12.5 3.125 12.5H11.875C12.0408 12.5 12.1997 12.5658 12.3169 12.6831C12.4342 12.8003 12.5 12.9592 12.5 13.125C12.5 13.2908 12.4342 13.4497 12.3169 13.5669C12.1997 13.6842 12.0408 13.75 11.875 13.75H3.125C2.95924 13.75 2.80027 13.6842 2.68306 13.5669C2.56585 13.4497 2.5 13.2908 2.5 13.125ZM3.125 16.25C2.95924 16.25 2.80027 16.1842 2.68306 16.0669C2.56585 15.9497 2.5 15.7908 2.5 15.625C2.5 15.4592 2.56585 15.3003 2.68306 15.1831C2.80027 15.0658 2.95924 15 3.125 15H8.125C8.29076 15 8.44973 15.0658 8.56694 15.1831C8.68415 15.3003 8.75 15.4592 8.75 15.625C8.75 15.7908 8.68415 15.9497 8.56694 16.0669C8.44973 16.1842 8.29076 16.25 8.125 16.25H3.125Z" fill="#353535"/>
<circle cx="11.9047" cy="16.6666" r="3.83333" fill="white" stroke="white"/>
<path d="M12.0685 19.9106L12.0566 19.9087C12.0583 19.91 12.0602 19.9108 12.0623 19.9112C12.0644 19.9115 12.0665 19.9113 12.0685 19.9106ZM14.7754 15.6514C14.772 15.6335 14.7627 15.6171 14.749 15.6051C14.7352 15.593 14.7179 15.5859 14.6996 15.5848C14.6814 15.5837 14.6633 15.5888 14.6483 15.5991C14.6332 15.6095 14.6221 15.6246 14.6166 15.642C14.6113 15.6586 14.601 15.673 14.587 15.6833C14.573 15.6936 14.5561 15.6992 14.5388 15.6993H14.3086C14.2937 15.6993 14.279 15.6953 14.2663 15.6876L13.9333 15.4879C13.9205 15.4802 13.9059 15.4761 13.891 15.4761H13.3583C13.342 15.4761 13.3262 15.4809 13.3127 15.4899L12.6557 15.9279C12.6444 15.9355 12.6351 15.9457 12.6287 15.9578C12.6223 15.9698 12.619 15.9833 12.6191 15.9969V16.6181C12.6191 16.633 12.6231 16.6476 12.6308 16.6603C12.6384 16.6731 12.6494 16.6835 12.6626 16.6905L13.524 17.1504C13.537 17.1573 13.5478 17.1676 13.5555 17.1802C13.5631 17.1927 13.5672 17.2071 13.5675 17.2218L13.5715 17.5713C13.5717 17.5858 13.5758 17.6 13.5832 17.6124C13.5907 17.6248 13.6012 17.635 13.6139 17.642L13.96 17.8335C13.9729 17.8407 13.9836 17.8511 13.991 17.8637C13.9985 17.8764 14.0024 17.8908 14.0024 17.9054V18.6286C14.0025 18.6444 14.007 18.6599 14.0156 18.6732C14.0242 18.6865 14.0364 18.697 14.0508 18.7035C14.0652 18.71 14.0812 18.7122 14.0968 18.7099C14.1124 18.7075 14.1271 18.7007 14.1389 18.6902C14.2785 18.5673 14.4786 18.3879 14.5053 18.3468C14.5493 18.2786 14.5906 18.2088 14.6292 18.1374C14.7092 17.9894 14.7768 17.8351 14.8316 17.6761C15.0203 17.1298 14.8712 16.1478 14.7754 15.6514ZM12.3572 17.363L11.4446 16.6785C11.4343 16.6708 11.4217 16.6666 11.4088 16.6666H10.9758C10.9684 16.6666 10.9611 16.6651 10.9542 16.6623C10.9474 16.6595 10.9412 16.6553 10.9359 16.6501L10.7318 16.4459C10.7262 16.4404 10.7197 16.436 10.7124 16.433C10.7052 16.43 10.6975 16.4285 10.6897 16.4285H9.89813C9.88698 16.4285 9.87607 16.4252 9.8668 16.419C9.85752 16.4128 9.8503 16.404 9.84603 16.3937C9.84176 16.3834 9.84064 16.372 9.84282 16.3611C9.84499 16.3501 9.85037 16.3401 9.85825 16.3322L9.98355 16.2069C9.98878 16.2017 9.995 16.1975 10.0018 16.1947C10.0087 16.1918 10.016 16.1904 10.0234 16.1904H10.5051C10.5311 16.1904 10.5563 16.1819 10.577 16.1663C10.5977 16.1506 10.6127 16.1286 10.6197 16.1036L10.7222 15.7391C10.7244 15.7312 10.7282 15.7239 10.7333 15.7176C10.7384 15.7113 10.7448 15.7061 10.752 15.7023L11.1608 15.4919C11.17 15.4871 11.1777 15.4799 11.1831 15.4711C11.1885 15.4622 11.1913 15.4521 11.1913 15.4417V15.2557C11.1913 15.2442 11.1948 15.2329 11.2014 15.2234L11.4187 14.9106C11.4252 14.9012 11.4344 14.8941 11.4452 14.8901L11.7492 14.776C11.7599 14.7719 11.7692 14.7647 11.7757 14.7553C11.7823 14.7458 11.7858 14.7346 11.7858 14.7231V14.5535C11.7858 14.5442 11.7835 14.535 11.7791 14.5268C11.7747 14.5186 11.7684 14.5116 11.7606 14.5065L11.4559 14.3038C11.4475 14.2983 11.4378 14.2951 11.4278 14.2945C11.4178 14.2939 11.4078 14.296 11.3989 14.3005L10.984 14.508C10.9745 14.5126 10.9639 14.5146 10.9534 14.5135C10.9428 14.5124 10.9328 14.5084 10.9245 14.5019L10.7277 14.3463C10.721 14.3409 10.7156 14.3341 10.712 14.3263C10.7083 14.3185 10.7065 14.31 10.7066 14.3013C10.7068 14.2927 10.7089 14.2843 10.7128 14.2766C10.7167 14.2689 10.7223 14.2622 10.7292 14.2571L10.8891 14.1394C10.8963 14.134 10.9022 14.1271 10.9061 14.1191C10.9101 14.111 10.9122 14.1021 10.912 14.0932C10.9119 14.0842 10.9096 14.0754 10.9054 14.0675C10.9012 14.0596 10.8951 14.0528 10.8877 14.0477L10.6388 13.874C10.6301 13.868 10.62 13.8644 10.6095 13.8639C10.5989 13.8633 10.5885 13.8657 10.5792 13.8708C10.4892 13.92 10.2251 14.0658 10.1313 14.1315C9.69755 14.4357 9.34847 14.8454 9.11703 15.3219C9.08995 15.3779 9.05647 15.4349 9.05319 15.4963C9.04992 15.5578 9.00171 15.695 8.98162 15.7505C8.97891 15.758 8.97782 15.766 8.97844 15.774C8.97906 15.7819 8.98136 15.7896 8.98519 15.7966L9.51629 16.7725C9.52107 16.7814 9.52817 16.7888 9.53682 16.794L10.0956 17.1294C10.1029 17.1337 10.109 17.1396 10.1137 17.1466C10.1184 17.1537 10.1214 17.1616 10.1225 17.17L10.2344 17.9816C10.2355 17.9894 10.2382 17.9969 10.2424 18.0035C10.2465 18.0102 10.2519 18.016 10.2584 18.0205L10.6944 18.3202C10.707 18.3288 10.7158 18.3421 10.719 18.3571L10.9502 19.4553C10.9515 19.4617 10.954 19.4679 10.9575 19.4734C10.9792 19.5085 11.0658 19.6371 11.1703 19.6562C11.1606 19.6588 11.152 19.6649 11.1423 19.6678C11.1674 19.6722 11.1923 19.6779 11.2167 19.685C11.2465 19.6931 11.2763 19.6999 11.306 19.7063C11.3526 19.7155 11.3572 19.7227 11.3795 19.6813C11.4093 19.626 11.4434 19.6069 11.4688 19.6001C11.4793 19.5976 11.4889 19.5923 11.4965 19.5847C11.5041 19.577 11.5094 19.5674 11.5118 19.5569L11.6617 18.8623C11.6648 18.8477 11.6733 18.8349 11.6855 18.8263L12.3551 18.3516C12.3629 18.3461 12.3693 18.3388 12.3736 18.3303C12.378 18.3218 12.3803 18.3124 12.3803 18.3029V17.4106C12.3804 17.4015 12.3783 17.3924 12.3743 17.3841C12.3703 17.3759 12.3645 17.3686 12.3572 17.363Z" fill="#353535"/>
<path d="M11.9941 13.5718C11.9941 13.5718 11.9397 13.5749 11.9287 13.5752C11.8481 13.5776 11.7676 13.5831 11.6874 13.5919C11.3948 13.6236 11.1083 13.697 10.8365 13.8099C10.8726 13.8349 10.8104 13.8578 10.8104 13.8578L10.9077 14.048H11.4286L11.7857 14.2265L12.0982 14.048L11.9941 13.5718ZM13.3665 14.6441L13.6063 14.4358C13.6138 14.4293 13.6195 14.421 13.623 14.4117C13.6265 14.4024 13.6276 14.3923 13.6262 14.3825C13.6248 14.3726 13.621 14.3633 13.615 14.3553C13.6091 14.3474 13.6013 14.341 13.5923 14.3368L13.3124 14.2069C13.2981 14.2003 13.2819 14.1995 13.2671 14.2048C13.2523 14.2101 13.2403 14.221 13.2335 14.2352L13.1182 14.4764C13.1119 14.4896 13.1107 14.5046 13.1148 14.5186C13.1189 14.5327 13.128 14.5447 13.1403 14.5524L13.296 14.6498C13.3068 14.6565 13.3195 14.6596 13.3322 14.6585C13.3449 14.6575 13.3569 14.6525 13.3665 14.6441ZM14.4887 14.9508L14.4019 14.8169C14.4006 14.8148 14.3994 14.8127 14.3982 14.8105C14.3826 14.7785 14.2533 14.5173 14.1452 14.416C14.0641 14.3393 14.0411 14.3614 14.0347 14.3783C14.031 14.3877 14.0249 14.3959 14.017 14.4021L13.5878 14.749C13.5772 14.7576 13.5641 14.7622 13.5505 14.7623H13.3283C13.3205 14.7622 13.3127 14.7638 13.3055 14.7668C13.2983 14.7698 13.2917 14.7741 13.2862 14.7797L13.1076 14.9582C13.1021 14.9638 13.0977 14.9703 13.0947 14.9776C13.0917 14.9848 13.0901 14.9925 13.0901 15.0003C13.0901 15.0082 13.0917 15.0159 13.0947 15.0231C13.0977 15.0304 13.1021 15.0369 13.1076 15.0425L13.2862 15.221C13.2917 15.2266 13.2983 15.2309 13.3055 15.2339C13.3127 15.2369 13.3205 15.2385 13.3283 15.2384H14.4469C14.4549 15.2385 14.4629 15.2368 14.4703 15.2337C14.4777 15.2305 14.4843 15.2259 14.4899 15.2201C14.4955 15.2143 14.4998 15.2075 14.5026 15.1999C14.5055 15.1924 14.5067 15.1844 14.5064 15.1764L14.4982 14.9807C14.4978 14.9701 14.4945 14.9597 14.4887 14.9508Z" fill="#353535"/>
<path d="M11.9047 13.9285C12.5382 13.9284 13.1521 14.148 13.6418 14.5499C14.1315 14.9517 14.4668 15.5109 14.5904 16.1322C14.714 16.7535 14.6184 17.3984 14.3199 17.9571C14.0213 18.5158 13.5382 18.9537 12.953 19.1962C12.3677 19.4386 11.7165 19.4707 11.1103 19.2868C10.5041 19.103 9.9804 18.7146 9.62843 18.1879C9.27645 17.6612 9.11799 17.0288 9.18004 16.3984C9.2421 15.7679 9.52082 15.1785 9.96873 14.7306C10.2224 14.4755 10.5241 14.2733 10.8564 14.1356C11.1887 13.9979 11.545 13.9275 11.9047 13.9285ZM11.9047 13.3333C10.064 13.3333 8.57141 14.8258 8.57141 16.6666C8.57141 18.5074 10.064 19.9999 11.9047 19.9999C13.7455 19.9999 15.2381 18.5074 15.2381 16.6666C15.2381 14.8258 13.7455 13.3333 11.9047 13.3333Z" fill="#353535"/>
</svg>
