<svg width="34" height="32" viewBox="0 0 34 32" fill="none" xmlns="http://www.w3.org/2000/svg">
<path d="M23.125 15.1435H12.7475L15.9238 11.4067C16.0723 11.2316 16.1437 11.006 16.1224 10.7794C16.1011 10.5527 15.9887 10.3437 15.81 10.1982C15.6313 10.0527 15.4009 9.98273 15.1696 10.0036C14.9382 10.0245 14.7248 10.1346 14.5762 10.3096L10.2013 15.452C10.1718 15.4929 10.1455 15.5359 10.1225 15.5806C10.1225 15.6234 10.1225 15.6491 10.0613 15.692C10.0216 15.7903 10.0008 15.8949 10 16.0005C10.0008 16.1062 10.0216 16.2108 10.0613 16.3091C10.0613 16.3519 10.0612 16.3776 10.1225 16.4205C10.1455 16.4652 10.1718 16.5082 10.2013 16.5491L14.5762 21.6915C14.6585 21.7882 14.7615 21.866 14.878 21.9193C14.9944 21.9727 15.1215 22.0002 15.25 22C15.4544 22.0004 15.6526 21.9306 15.81 21.8029C15.8986 21.7309 15.9718 21.6426 16.0255 21.5428C16.0792 21.4431 16.1123 21.334 16.1228 21.2218C16.1334 21.1095 16.1213 20.9963 16.0871 20.8887C16.0529 20.781 15.9974 20.681 15.9238 20.5944L12.7475 16.8576H23.125C23.3571 16.8576 23.5796 16.7673 23.7437 16.6066C23.9078 16.4458 24 16.2278 24 16.0005C24 15.7732 23.9078 15.5552 23.7437 15.3945C23.5796 15.2338 23.3571 15.1435 23.125 15.1435Z" fill="white"/>
</svg>
