<svg width="20" height="20" viewBox="0 0 20 20" fill="none" xmlns="http://www.w3.org/2000/svg">
<path d="M18.2101 3.57178H17.1467C17.1457 3.57178 17.1446 3.5722 17.1439 3.57295C17.1431 3.57371 17.1427 3.57473 17.1427 3.5758V17.1432C17.1427 17.5221 17.2932 17.8854 17.5611 18.1534C17.829 18.4213 18.1924 18.5718 18.5713 18.5718C18.9502 18.5718 19.3135 18.4213 19.5814 18.1534C19.8493 17.8854 19.9998 17.5221 19.9998 17.1432V5.36151C19.9998 4.88684 19.8113 4.43162 19.4756 4.09598C19.14 3.76034 18.6848 3.57178 18.2101 3.57178Z" fill="#353535"/>
<path d="M15.7143 17.1429V1.78571C15.7143 1.55121 15.6681 1.319 15.5784 1.10235C15.4886 0.885698 15.3571 0.688842 15.1913 0.523024C15.0254 0.357205 14.8286 0.22567 14.6119 0.135929C14.3953 0.0461889 14.1631 0 13.9286 0H1.78571C1.31211 0 0.85791 0.188137 0.523024 0.523024C0.188137 0.85791 0 1.31211 0 1.78571V17.5C0 18.163 0.263392 18.7989 0.732233 19.2678C1.20107 19.7366 1.83696 20 2.5 20H17.8058C17.8126 20.0001 17.8193 19.9988 17.8255 19.9962C17.8318 19.9937 17.8375 19.9899 17.8422 19.9851C17.847 19.9803 17.8508 19.9746 17.8534 19.9684C17.8559 19.9621 17.8572 19.9554 17.8571 19.9487C17.8571 19.9374 17.8534 19.9265 17.8465 19.9177C17.8397 19.9088 17.83 19.9024 17.8192 19.8996C17.215 19.7338 16.6818 19.3744 16.3016 18.8764C15.9213 18.3784 15.715 17.7694 15.7143 17.1429ZM2.85714 4.28571C2.85714 4.09627 2.9324 3.91459 3.06635 3.78064C3.20031 3.64668 3.38199 3.57143 3.57143 3.57143H6.42857C6.61801 3.57143 6.79969 3.64668 6.93365 3.78064C7.0676 3.91459 7.14286 4.09627 7.14286 4.28571V7.14286C7.14286 7.3323 7.0676 7.51398 6.93365 7.64793C6.79969 7.78189 6.61801 7.85714 6.42857 7.85714H3.57143C3.38199 7.85714 3.20031 7.78189 3.06635 7.64793C2.9324 7.51398 2.85714 7.3323 2.85714 7.14286V4.28571ZM12.1429 16.4286H3.59152C3.20714 16.4286 2.87723 16.133 2.85804 15.7487C2.85338 15.6521 2.86839 15.5556 2.90214 15.465C2.93589 15.3743 2.98768 15.2915 3.05438 15.2215C3.12109 15.1515 3.2013 15.0958 3.29018 15.0577C3.37906 15.0196 3.47474 15 3.57143 15H12.1228C12.5071 15 12.8371 15.2955 12.8562 15.6799C12.8609 15.7765 12.8459 15.873 12.8121 15.9636C12.7784 16.0542 12.7266 16.137 12.6599 16.207C12.5932 16.277 12.513 16.3328 12.4241 16.3708C12.3352 16.4089 12.2395 16.4286 12.1429 16.4286ZM12.1429 13.5714H3.59152C3.20714 13.5714 2.87723 13.2759 2.85804 12.8915C2.85338 12.7949 2.86839 12.6984 2.90214 12.6078C2.93589 12.5172 2.98768 12.4344 3.05438 12.3644C3.12109 12.2944 3.2013 12.2387 3.29018 12.2006C3.37906 12.1625 3.47474 12.1429 3.57143 12.1429H12.1228C12.5071 12.1429 12.8371 12.4384 12.8562 12.8228C12.8609 12.9193 12.8459 13.0159 12.8121 13.1065C12.7784 13.1971 12.7266 13.2799 12.6599 13.3499C12.5932 13.4199 12.513 13.4756 12.4241 13.5137C12.3352 13.5518 12.2395 13.5714 12.1429 13.5714ZM12.1429 10.7143H3.59152C3.20714 10.7143 2.87723 10.4187 2.85804 10.0344C2.85338 9.9378 2.86839 9.84128 2.90214 9.75067C2.93589 9.66006 2.98768 9.57725 3.05438 9.50725C3.12109 9.43725 3.2013 9.38152 3.29018 9.34344C3.37906 9.30536 3.47474 9.28572 3.57143 9.28571H12.1228C12.5071 9.28571 12.8371 9.58125 12.8562 9.96562C12.8609 10.0622 12.8459 10.1587 12.8121 10.2493C12.7784 10.3399 12.7266 10.4228 12.6599 10.4927C12.5932 10.5627 12.513 10.6185 12.4241 10.6566C12.3352 10.6946 12.2395 10.7143 12.1429 10.7143ZM12.1429 7.85714H9.3058C8.92143 7.85714 8.59152 7.56161 8.57232 7.17723C8.56767 7.08065 8.58267 6.98414 8.61642 6.89353C8.65017 6.80292 8.70197 6.72011 8.76867 6.65011C8.83537 6.58011 8.91559 6.52438 9.00447 6.4863C9.09334 6.44822 9.18902 6.42858 9.28571 6.42857H12.1228C12.5071 6.42857 12.8371 6.72411 12.8562 7.10848C12.8609 7.20506 12.8459 7.30158 12.8121 7.39219C12.7784 7.48279 12.7266 7.56561 12.6599 7.63561C12.5932 7.70561 12.513 7.76133 12.4241 7.79941C12.3352 7.83749 12.2395 7.85713 12.1429 7.85714ZM12.1429 5H9.3058C8.92143 5 8.59152 4.70446 8.57232 4.32009C8.56767 4.22351 8.58267 4.12699 8.61642 4.03639C8.65017 3.94578 8.70197 3.86296 8.76867 3.79296C8.83537 3.72297 8.91559 3.66724 9.00447 3.62916C9.09334 3.59108 9.18902 3.57144 9.28571 3.57143H12.1228C12.5071 3.57143 12.8371 3.86696 12.8562 4.25134C12.8609 4.34792 12.8459 4.44444 12.8121 4.53504C12.7784 4.62565 12.7266 4.70846 12.6599 4.77846C12.5932 4.84846 12.513 4.90419 12.4241 4.94227C12.3352 4.98035 12.2395 4.99999 12.1429 5Z" fill="#353535"/>
</svg>
