<svg width="20" height="20" viewBox="0 0 20 20" fill="none" xmlns="http://www.w3.org/2000/svg">
<path d="M5.00125 0H15.0012V2.49625H17.5012V0C18.1641 0.000331412 18.7996 0.26387 19.2682 0.732675C19.7368 1.20148 20 1.83718 20 2.5V17.5C20 18.1628 19.7368 18.7985 19.2682 19.2673C18.7996 19.7361 18.1641 19.9997 17.5012 20V17.4963H15.0012V20H5.00125V17.4963H2.50125V20H2.5C1.83696 20 1.20107 19.7366 0.732233 19.2678C0.263392 18.7989 0 18.163 0 17.5V2.5C0 1.83696 0.263392 1.20107 0.732233 0.732233C1.20107 0.263392 1.83696 0 2.5 0H2.50125V2.49625H5.00125V0ZM7.5 13.75L13.125 10L7.5 6.25V13.75ZM17.5012 14.9963V11.2463H15.0012V14.9963H17.5012ZM17.5012 8.74625V4.99625H15.0012V8.74625H17.5012ZM5.00125 14.9963V11.2463H2.50125V14.9963H5.00125ZM5.00125 8.74625V4.99625H2.50125V8.74625H5.00125Z" fill="#353535"/>
</svg>
