<svg width="21" height="21" viewBox="0 0 21 21" fill="none" xmlns="http://www.w3.org/2000/svg">
<circle cx="10.5" cy="10.5" r="10.5" fill="#CACACA"/>
<path d="M7.19568 7.19568C7.32102 7.07039 7.49099 7 7.66821 7C7.84543 7 8.0154 7.07039 8.14074 7.19568L10.504 9.55898L12.8673 7.19568C12.9934 7.07394 13.1622 7.00657 13.3375 7.0081C13.5127 7.00962 13.6803 7.07991 13.8042 7.20383C13.9282 7.32774 13.9985 7.49538 14 7.67062C14.0015 7.84586 13.9341 8.01468 13.8124 8.14074L11.4491 10.504L13.8124 12.8673C13.9341 12.9934 14.0015 13.1622 14 13.3375C13.9985 13.5127 13.9282 13.6803 13.8042 13.8042C13.6803 13.9282 13.5127 13.9985 13.3375 14C13.1622 14.0015 12.9934 13.9341 12.8673 13.8124L10.504 11.4491L8.14074 13.8124C8.01468 13.9341 7.84586 14.0015 7.67062 14C7.49538 13.9985 7.32774 13.9282 7.20383 13.8042C7.07991 13.6803 7.00962 13.5127 7.0081 13.3375C7.00657 13.1622 7.07394 12.9934 7.19568 12.8673L9.55898 10.504L7.19568 8.14074C7.07039 8.0154 7 7.84543 7 7.66821C7 7.49099 7.07039 7.32102 7.19568 7.19568Z" fill="white"/>
</svg>
